<svg width="657" height="250" viewBox="0 0 657 250" fill="none" xmlns="http://www.w3.org/2000/svg">
<path d="M657 119H260V250H657V119Z" fill="#00FF9D"/>
<path d="M353.797 29.0084C351.576 10.5913 337.63 0 319.165 0C298.088 0 282 14.875 282 40.9612C282 66.9712 297.815 81.9223 319.165 81.9223C339.617 81.9223 351.966 68.3341 353.797 53.654L336.734 53.5763C335.137 62.1042 328.436 67.0092 319.437 67.0092C307.321 67.0092 299.101 58.0154 299.101 40.9612C299.101 24.3745 307.204 14.9131 319.553 14.9131C328.787 14.9131 335.448 20.2476 336.734 29.0084H353.797ZM390.753 82C408.906 82 420.204 69.5798 420.204 51.1626C420.204 32.6297 408.906 20.2476 390.753 20.2476C372.599 20.2476 361.301 32.6297 361.301 51.1626C361.301 69.5798 372.599 82 390.753 82ZM390.831 69.1519C382.455 69.1519 378.169 61.4814 378.169 51.0454C378.169 40.6109 382.455 32.9023 390.831 32.9023C399.051 32.9023 403.335 40.6109 403.335 51.0454C403.335 61.4814 399.051 69.1519 390.831 69.1519ZM467.502 55.3672C467.542 63.3879 462.049 67.594 456.089 67.594C449.816 67.594 445.764 63.1945 445.726 56.1469V21.0258H429.129V59.1057C429.169 73.0838 437.349 81.6102 449.388 81.6102C458.386 81.6102 464.853 76.9777 467.542 69.9681H468.165V80.832H484.098V21.0258H467.502V55.3672ZM495.508 80.832H512.104V46.9962C512.104 39.6378 517.479 34.5759 524.804 34.5759C527.101 34.5759 530.257 34.9658 531.815 35.4714V20.7532C530.334 20.4029 528.27 20.1699 526.595 20.1699C519.894 20.1699 514.402 24.0638 512.22 31.4617H511.597V21.0258H495.508V80.832ZM588.318 38.08C586.837 27.0607 577.954 20.2476 562.84 20.2476C547.53 20.2476 537.441 27.3333 537.479 38.8597C537.441 47.8139 543.089 53.6159 554.775 55.9519L565.139 58.0154C570.359 59.0661 572.734 60.9742 572.812 63.9727C572.734 67.5163 568.878 70.0473 563.073 70.0473C557.152 70.0473 553.218 67.5163 552.205 62.6494L535.882 63.5052C537.441 74.9523 547.18 82 563.035 82C578.539 82 589.642 74.0965 589.68 62.2991C589.642 53.654 583.994 48.4763 572.384 46.1007L561.554 43.92C555.983 42.714 553.919 40.8059 553.957 37.9246C553.919 34.3429 557.97 32.0069 563.113 32.0069C568.878 32.0069 572.306 35.1607 573.124 39.015L588.318 38.08ZM625.536 82C640.34 82 650.312 74.797 652.65 63.7001L637.3 62.6874C635.626 67.2438 631.341 69.6179 625.809 69.6179C617.511 69.6179 612.252 64.128 612.252 55.2118V55.1738H653V50.6175C653 30.2922 640.69 20.2476 624.873 20.2476C607.265 20.2476 595.851 32.7455 595.851 51.2022C595.851 70.163 607.109 82 625.536 82ZM612.252 44.8946C612.602 38.08 617.784 32.6297 625.146 32.6297C632.353 32.6297 637.34 37.7693 637.38 44.8946H612.252Z" fill="white"/>
<path d="M283 213.61H317.163C335.124 213.61 344.689 204.282 344.689 191.608C344.689 179.83 336.217 172.717 327.119 172.289V171.512C335.435 169.645 341.565 163.777 341.565 154.409C341.565 142.474 332.664 134 315.016 134H283V213.61ZM299.906 199.85V178.704H314.078C322.2 178.704 327.236 183.368 327.236 189.937C327.236 195.923 323.136 199.85 313.689 199.85H299.906ZM299.906 167.313V147.605H312.751C320.247 147.605 324.503 151.453 324.503 157.208C324.503 163.505 319.349 167.313 312.44 167.313H299.906ZM391.966 188.187C392.004 196.195 386.499 200.394 380.525 200.394C374.24 200.394 370.18 196.002 370.14 188.966V153.903H353.508V191.92C353.547 205.875 361.746 214.387 373.811 214.387C382.83 214.387 389.31 209.762 392.004 202.764H392.628V213.61H408.598V153.903H391.966V188.187ZM442.132 214.582C451.815 214.582 456.851 209.023 459.155 204.047H459.857V213.61H476.255V134H459.662V163.932H459.155C456.929 159.073 452.126 153.126 442.092 153.126C428.935 153.126 417.808 163.31 417.808 183.835C417.808 203.815 428.466 214.582 442.132 214.582ZM447.403 201.405C439.243 201.405 434.791 194.174 434.791 183.757C434.791 173.416 439.165 166.304 447.403 166.304C455.484 166.304 460.013 173.106 460.013 183.757C460.013 194.407 455.406 201.405 447.403 201.405ZM510.159 214.582C519.842 214.582 524.878 209.023 527.183 204.047H527.885V213.61H544.284V134H527.69V163.932H527.183C524.958 159.073 520.155 153.126 510.121 153.126C496.963 153.126 485.835 163.31 485.835 183.835C485.835 203.815 496.494 214.582 510.159 214.582ZM515.431 201.405C507.27 201.405 502.819 194.174 502.819 183.757C502.819 173.416 507.192 166.304 515.431 166.304C523.513 166.304 528.041 173.106 528.041 183.757C528.041 194.407 523.434 201.405 515.431 201.405ZM566.359 236C578.735 236 585.294 229.703 588.691 220.062L612 153.98L594.39 153.903L581.858 197.75H581.233L568.817 153.903H551.327L572.839 215.321L571.864 217.847C569.677 223.445 565.499 223.717 559.643 221.929L555.894 234.29C558.276 235.301 562.141 236 566.359 236Z" fill="#15081C"/>
<path d="M200 0H37.5C22.425 0 0 9.9875 0 37.5V212.5C0 240.012 22.425 250 37.5 250H225V225H37.65C31.875 224.85 25 222.575 25 212.5C25 211.237 25.1125 210.112 25.3 209.087C26.7 201.887 32.6 200.125 37.65 200H225V25C225 18.3696 222.367 12.0107 217.677 7.32238C212.989 2.63393 206.631 0 200 0ZM200 112.5L175 100L150 112.5V25H200V112.5Z" fill="#00FF9D"/>
<path d="M210 13H137V118H210V13Z" fill="#00FF9D"/>
<path d="M163 104C161.053 119.464 151.306 136.534 129.482 141.029C107.658 145.524 91.9282 133.701 84 120.271" stroke="#15081C" stroke-width="17" stroke-linecap="round" stroke-linejoin="round"/>
<path d="M84 73.0055C80.8889 68.0577 74.7166 63.7018 66.1529 65.3578C57.5892 67.014 53.764 73.3032 53 79" stroke="#15081C" stroke-width="17" stroke-linecap="round" stroke-linejoin="round"/>
<path d="M172 50.5771C168.889 45.2759 162.717 40.609 154.154 42.3834C145.589 44.1577 141.765 50.8959 141 57" stroke="#15081C" stroke-width="17" stroke-linecap="round" stroke-linejoin="round"/>
</svg>
