<svg width="663" height="570" viewBox="0 0 663 570" fill="none" xmlns="http://www.w3.org/2000/svg">
<path opacity="0.11" d="M245 569.994C380.31 569.994 490 460.303 490 324.994C490 189.684 380.31 79.9937 245 79.9937C109.69 79.9937 0 189.684 0 324.994C0 460.303 109.69 569.994 245 569.994Z" fill="white"/>
<g opacity="0.6">
<path opacity="0.6" d="M591.04 121.784L591.58 119.304C593.07 112.464 594.83 107.134 596.86 103.314C598.89 99.5036 601.29 96.5936 604.04 94.6036C606.79 92.6136 609.98 90.9336 613.61 89.5736C616.49 88.5136 619.11 87.3636 621.47 86.1336C623.83 84.8936 625.8 83.4436 627.39 81.7636C628.97 80.0836 630.04 78.0136 630.57 75.5636C631.09 73.1936 630.97 70.9736 630.24 68.9236C629.51 66.8636 628.28 65.1336 626.54 63.7236C624.8 62.3136 622.75 61.3436 620.37 60.8336C618 60.3136 615.66 60.3836 613.35 61.0136C611.04 61.6436 609.01 62.8236 607.27 64.5336C605.53 66.2436 604.33 68.4936 603.68 71.3036L575.91 65.2536C577.88 56.8236 581.34 50.3336 586.32 45.7636C591.3 41.2036 597.21 38.3036 604.05 37.0736C610.9 35.8436 618.1 36.0536 625.66 37.7036C633.95 39.5136 641.05 42.4036 646.95 46.3936C652.85 50.3736 657.1 55.2836 659.71 61.1236C662.31 66.9636 662.82 73.5236 661.23 80.8036C660.19 85.5936 658.46 89.6436 656.06 92.9536C653.66 96.2736 650.71 99.0136 647.22 101.184C643.73 103.354 639.81 105.174 635.44 106.614C632.04 107.724 629.13 109.034 626.72 110.534C624.31 112.034 622.33 113.914 620.78 116.164C619.23 118.424 618.07 121.334 617.29 124.914L616.75 127.394L591.04 121.784ZM595.75 164.294C591.41 163.344 588.02 161.014 585.61 157.284C583.2 153.554 582.48 149.514 583.47 145.184C584.36 140.904 586.67 137.584 590.41 135.224C594.15 132.854 598.2 132.144 602.54 133.094C606.69 133.994 610 136.314 612.48 140.034C614.96 143.754 615.75 147.754 614.87 152.034C614.2 154.924 612.87 157.394 610.88 159.444C608.9 161.504 606.58 162.974 603.91 163.874C601.25 164.754 598.53 164.894 595.75 164.294Z" fill="white"/>
</g>
<path d="M343.94 226.624L526.18 267.864C526.45 267.924 526.72 267.754 526.78 267.484L565.29 97.2837C567.17 88.9737 564.71 80.1437 558.46 73.9637C555.01 70.5537 550.56 68.3237 545.82 67.2537L387.94 31.5237C373.24 28.1937 349.16 32.9937 343.09 59.8237L304.47 230.504C298.4 257.334 318.07 272.024 332.77 275.354L515.16 316.624C515.43 316.684 515.7 316.514 515.76 316.244L521.06 292.834C521.12 292.564 520.95 292.294 520.68 292.234L338.44 250.994C332.84 249.574 326.64 245.834 328.86 236.014C329.14 234.784 329.5 233.714 329.91 232.754C332.85 226.054 338.99 225.634 343.94 226.624ZM375.88 198.484L377.43 181.824L495.92 192.824L494.37 209.484L375.88 198.484ZM495.63 106.134C509.64 109.304 518.42 123.224 515.25 137.234C512.08 151.244 498.16 160.024 484.15 156.854C470.14 153.684 461.36 139.764 464.53 125.754C467.7 111.744 481.62 102.964 495.63 106.134ZM412.15 94.4237C422.38 96.7437 428.8 106.914 426.49 117.144C424.17 127.374 414 133.794 403.77 131.484C393.54 129.164 387.12 118.994 389.43 108.764C391.74 98.5337 401.92 92.1037 412.15 94.4237Z" fill="#00FF9D"/>
<path d="M584.78 359.634C583.61 394.534 590.32 429.864 570.63 461.634C566.51 468.274 561.89 474.814 556.44 480.364C551.82 485.074 550.16 489.804 550.42 496.194C550.86 506.764 550.7 517.374 550.49 527.964C550.24 540.804 543.51 547.544 530.78 547.784C521.01 547.964 511.22 547.954 501.45 547.794C488.4 547.564 482.02 541.114 481.8 528.194C481.72 523.644 481.79 519.084 481.79 514.074C390.51 514.074 300.16 514.074 208.4 514.074C208.4 518.984 208.52 524.004 208.37 529.014C208.03 540.414 201.48 547.374 190.15 547.734C179.3 548.084 168.41 548.084 157.56 547.724C146.53 547.354 140.02 540.634 139.79 529.604C139.54 517.384 139.98 505.154 139.51 492.954C139.38 489.564 137.98 485.394 135.68 483.044C115.64 462.644 105.59 438.304 105.53 409.774C105.5 393.254 105.52 376.734 105.52 359.644C265.23 359.634 424.28 359.634 584.78 359.634Z" fill="white"/>
<path d="M105.46 273.314C105.46 269.604 105.46 266.404 105.46 263.194C105.46 201.274 105.34 139.354 105.51 77.4337C105.61 42.6237 123.4 15.7737 154.21 4.84367C182.55 -5.21633 208.22 0.563673 230.52 20.6037C237.58 26.9537 242.99 37.0037 251.08 39.7837C258.4 42.3037 268.29 36.9337 277.12 35.5337C297.04 32.3837 315.41 36.9837 332.24 47.7737C335.69 49.9837 338.07 51.0437 342.24 48.5737C348.96 44.6037 355.89 45.9037 361.69 51.3237C365.26 54.6637 368.66 58.1837 372.1 61.6537C381.89 71.5437 381.87 80.3637 371.88 90.4537C360.8 101.654 349.61 112.744 338.47 123.884C314.08 148.274 289.69 172.674 265.29 197.044C253.54 208.784 245.43 208.714 233.49 196.824C230.6 193.954 227.61 191.164 224.93 188.104C219.54 181.954 218.88 175.264 222.26 167.694C223.27 165.424 223.08 161.544 221.76 159.474C207.07 136.344 204.38 111.884 213.47 86.2537C215.49 80.5437 214.99 76.8637 210.3 72.9437C205.11 68.6037 200.61 63.4437 195.8 58.6537C189.19 52.0537 181.12 50.3037 172.53 53.0137C164.19 55.6437 158.97 61.7537 157.44 70.5937C157.07 72.7237 156.81 74.9037 156.81 77.0537C156.78 140.874 156.79 204.704 156.8 268.524C156.8 269.864 156.99 271.194 157.21 273.944C160.65 273.944 164.02 273.944 167.4 273.944C310.28 273.944 453.16 273.944 596.05 273.944C613.5 273.944 618.69 279.214 618.72 296.884C618.73 300.414 618.83 303.954 618.68 307.474C618.22 318.124 611.97 324.504 601.37 325.214C599.48 325.344 597.57 325.314 595.67 325.314C428.61 325.314 261.55 325.324 94.49 325.274C90.45 325.274 86.05 325.504 82.43 324.074C68.26 318.454 71.6299 305.734 71.4499 294.674C71.2699 283.884 74.71 276.934 82.47 275.174C89.49 273.574 96.9499 273.914 105.46 273.314Z" fill="white"/>
</svg>
