<svg width="389" height="261" viewBox="0 0 389 261" fill="none" xmlns="http://www.w3.org/2000/svg">
<mask id="mask0" mask-type="alpha" maskUnits="userSpaceOnUse" x="0" y="0" width="389" height="261">
<path d="M0 16C0 7.16344 7.16344 0 16 0H373C381.837 0 389 7.16344 389 16V261H0V16Z" fill="#003F27"/>
</mask>
<g mask="url(#mask0)">
<rect x="-5.87891" y="-13.6108" width="398.879" height="280.476" fill="#00653E"/>
</g>
<path d="M226 85.7964H167.5C162.073 85.7964 154 89.3834 154 99.2644V162.115C154 171.996 162.073 175.583 167.5 175.583H235V166.605H167.554C165.475 166.551 163 165.734 163 162.115C163 161.662 163.041 161.258 163.108 160.89C163.612 158.304 165.736 157.671 167.554 157.626H235V94.7751C235 92.3938 234.052 90.11 232.364 88.4262C230.676 86.7424 228.387 85.7964 226 85.7964ZM226 126.2L217 121.711L208 126.2V94.7751H226V126.2Z" fill="#00FF9D"/>
<path d="M203.286 90.4995H229.429V128.124H203.286V90.4995Z" fill="#00FF9D"/>
<path fill-rule="evenodd" clip-rule="evenodd" d="M182.598 126.453C183.924 125.674 185.631 126.115 186.412 127.437C188.863 131.59 193.515 134.994 199.964 133.665C206.414 132.336 209.334 127.373 209.936 122.591C210.128 121.068 211.52 119.989 213.047 120.18C214.573 120.371 215.656 121.761 215.464 123.284C214.652 129.735 210.492 137.172 201.091 139.108C191.69 141.045 184.918 135.861 181.611 130.258C180.831 128.935 181.272 127.232 182.598 126.453Z" fill="#00653E"/>
<path fill-rule="evenodd" clip-rule="evenodd" d="M172.904 116.908C174.431 117.099 175.824 116.02 176.015 114.497C176.179 113.199 176.903 112.082 178.436 111.766C179.969 111.451 181.077 112.19 181.742 113.317C182.523 114.64 184.23 115.08 185.556 114.302C186.882 113.523 187.324 111.819 186.543 110.497C185.022 107.92 181.794 105.399 177.309 106.323C172.825 107.247 170.861 110.837 170.487 113.804C170.296 115.327 171.378 116.717 172.904 116.908Z" fill="#00653E"/>
<path fill-rule="evenodd" clip-rule="evenodd" d="M204.476 109.115C206.003 109.306 207.395 108.226 207.587 106.704C207.75 105.406 208.475 104.289 210.007 103.973C211.54 103.657 212.649 104.397 213.314 105.524C214.095 106.846 215.802 107.287 217.128 106.508C218.454 105.73 218.895 104.026 218.115 102.703C216.594 100.127 213.365 97.6059 208.881 98.5297C204.396 99.4536 202.433 103.044 202.059 106.011C201.867 107.534 202.95 108.923 204.476 109.115Z" fill="#00653E"/>
</svg>
