<svg width="536" height="400" viewBox="0 0 536 400" fill="none" xmlns="http://www.w3.org/2000/svg">
<path d="M536 351.111H0V351.379H536V351.111Z" fill="#EBEBEB"/>
<path d="M482.292 368.359H423.086V368.627H482.292V368.359Z" fill="#EBEBEB"/>
<path d="M354.296 362.742H344.98V363.01H354.296V362.742Z" fill="#EBEBEB"/>
<path d="M419.859 358.411H399.288V358.679H419.859V358.411Z" fill="#EBEBEB"/>
<path d="M102.537 360.212H56.2373V360.48H102.537V360.212Z" fill="#EBEBEB"/>
<path d="M279.846 367.137H230.834V367.405H279.846V367.137Z" fill="#EBEBEB"/>
<path d="M250.998 362.603H150.573V362.871H250.998V362.603Z" fill="#EBEBEB"/>
<path d="M260.196 297.178C260.196 297.983 260.037 298.78 259.729 299.523C259.421 300.266 258.969 300.942 258.4 301.51C257.83 302.079 257.154 302.529 256.41 302.836C255.666 303.143 254.869 303.301 254.064 303.299H47.0718C45.4503 303.296 43.8961 302.65 42.7505 301.503C41.6049 300.355 40.9614 298.8 40.9614 297.178V6.20522C40.9755 4.59295 41.6252 3.05137 42.7693 1.91531C43.9134 0.779243 45.4595 0.140457 47.0718 0.137695H254.064C255.688 0.137695 257.245 0.782597 258.393 1.93053C259.541 3.07846 260.185 4.63539 260.185 6.25881L260.196 297.178ZM259.917 6.25881C259.923 5.48606 259.776 4.71982 259.484 4.00413C259.193 3.28844 258.763 2.63742 258.219 2.08851C257.675 1.53959 257.028 1.1036 256.315 0.805606C255.602 0.507611 254.837 0.353488 254.064 0.352096H47.0718C45.5213 0.354936 44.0353 0.972853 42.94 2.07022C41.8446 3.16758 41.2294 4.65473 41.2294 6.20522V297.178C41.2294 298.729 41.8446 300.216 42.94 301.313C44.0353 302.411 45.5213 303.028 47.0718 303.031H254.064C255.616 303.028 257.103 302.411 258.2 301.314C259.297 300.217 259.915 298.73 259.917 297.178" fill="#EBEBEB"/>
<path d="M485.949 303.299H278.945C277.323 303.296 275.768 302.651 274.62 301.503C273.473 300.356 272.827 298.801 272.824 297.178V6.20522C272.841 4.59198 273.493 3.0504 274.639 1.91463C275.785 0.778868 277.332 0.140427 278.945 0.137695H485.949C487.559 0.143275 489.102 0.783306 490.244 1.91907C491.386 3.05483 492.034 4.59481 492.048 6.20522V297.178C492.048 298.798 491.406 300.352 490.263 301.499C489.12 302.646 487.568 303.294 485.949 303.299ZM278.945 0.352096C277.394 0.35493 275.907 0.972505 274.81 2.06956C273.713 3.16662 273.095 4.65374 273.092 6.20522V297.178C273.095 298.73 273.713 300.217 274.81 301.314C275.907 302.411 277.394 303.028 278.945 303.031H485.949C487.5 303.028 488.987 302.411 490.084 301.314C491.181 300.217 491.799 298.73 491.802 297.178V6.20522C491.799 4.65374 491.181 3.16662 490.084 2.06956C488.987 0.972505 487.5 0.35493 485.949 0.352096H278.945Z" fill="#EBEBEB"/>
<path d="M363.955 74.9631H292.828V157.432H363.955V74.9631Z" fill="#E6E6E6"/>
<path d="M368.918 74.9631H293.9V157.432H368.918V74.9631Z" fill="#F0F0F0"/>
<path d="M362.636 151.161V81.2561H300.192V151.161H362.636Z" fill="white"/>
<path d="M346.599 131.994H330.39C326.47 131.988 322.711 130.427 319.94 127.654C317.168 124.88 315.61 121.121 315.607 117.2V101.002C315.607 100.843 315.671 100.69 315.783 100.578C315.896 100.465 316.049 100.402 316.208 100.402H332.416C336.339 100.405 340.1 101.964 342.874 104.738C345.648 107.512 347.207 111.273 347.21 115.195V131.404C347.209 131.483 347.192 131.561 347.16 131.633C347.129 131.705 347.083 131.771 347.027 131.825C346.97 131.88 346.903 131.923 346.829 131.952C346.756 131.981 346.678 131.995 346.599 131.994ZM316.808 101.602V117.2C316.814 120.801 318.247 124.252 320.792 126.798C323.338 129.344 326.79 130.777 330.39 130.782H345.999V115.195C345.996 111.594 344.564 108.141 342.017 105.595C339.471 103.048 336.018 101.616 332.416 101.613L316.808 101.602Z" fill="#F0F0F0"/>
<path d="M466.727 105.966H385.287L392.502 46.2124H459.512L466.727 105.966Z" fill="#EBEBEB"/>
<path d="M398.774 105.955H397.466V128.842H398.774V105.955Z" fill="#E0E0E0"/>
<path d="M398.12 130.407C398.984 130.407 399.685 129.707 399.685 128.842C399.685 127.978 398.984 127.277 398.12 127.277C397.255 127.277 396.555 127.978 396.555 128.842C396.555 129.707 397.255 130.407 398.12 130.407Z" fill="#E0E0E0"/>
<path d="M448.856 105.966H434.856L431.887 46.2124H444.804L448.856 105.966Z" fill="#F5F5F5"/>
<path d="M430.087 105.955H421.939V351.1H430.087V105.955Z" fill="#F0F0F0"/>
<path d="M438.899 351.11H413.117C413.117 349.654 413.695 348.256 414.724 347.225C415.753 346.194 417.149 345.614 418.606 345.611H433.41C434.867 345.614 436.263 346.194 437.292 347.225C438.321 348.256 438.899 349.654 438.899 351.11Z" fill="#F0F0F0"/>
<path d="M430.087 105.955H421.939V110.929H430.087V105.955Z" fill="#E0E0E0"/>
<path d="M416.558 235.259C415.904 235.259 415.25 235.259 414.585 235.324C410.456 235.611 406.442 236.809 402.831 238.833C399.22 240.857 396.102 243.655 393.701 247.027C391.301 250.4 389.677 254.262 388.947 258.336C388.217 262.411 388.399 266.597 389.479 270.592C392.537 282.522 394.015 294.801 393.874 307.115V342.985C393.873 343.603 393.994 344.216 394.23 344.787C394.466 345.359 394.812 345.878 395.25 346.315C395.687 346.753 396.206 347.099 396.778 347.335C397.349 347.571 397.962 347.692 398.581 347.691H475.765V235.259H416.558Z" fill="#F0F0F0"/>
<path d="M503.84 263.292C503.839 259.299 502.985 255.352 501.336 251.716C499.686 248.079 497.279 244.837 494.276 242.206C491.272 239.575 487.741 237.615 483.92 236.459C480.098 235.302 476.073 234.975 472.115 235.499C468.156 236.023 464.355 237.387 460.966 239.499C457.577 241.61 454.678 244.421 452.463 247.744C450.248 251.066 448.768 254.823 448.122 258.763C447.476 262.704 447.679 266.737 448.718 270.592C451.776 282.522 453.253 294.801 453.113 307.115V342.985C453.112 343.603 453.232 344.216 453.468 344.787C453.704 345.359 454.051 345.878 454.488 346.315C454.925 346.753 455.445 347.099 456.016 347.335C456.588 347.571 457.201 347.692 457.819 347.691H493.774C495.022 347.691 496.219 347.195 497.102 346.312C497.984 345.43 498.48 344.233 498.48 342.985V305.014C498.358 293.463 499.8 281.949 502.768 270.785C503.464 268.348 503.825 265.827 503.84 263.292Z" fill="#F5F5F5"/>
<path d="M461.56 279.426H333.713V347.691H461.56V279.426Z" fill="#F0F0F0"/>
<path d="M381.46 189.989H287.124C284.405 189.94 281.707 190.47 279.209 191.544C276.711 192.618 274.47 194.211 272.634 196.217C270.799 198.224 269.412 200.598 268.565 203.182C267.718 205.766 267.43 208.5 267.721 211.204L274.903 294.82H411.648L404.465 211.204C403.887 205.467 401.227 200.14 396.988 196.231C392.749 192.322 387.225 190.101 381.46 189.989Z" fill="#E0E0E0"/>
<path d="M409.204 189.989H312.831C310.242 189.939 307.671 190.441 305.292 191.462C302.912 192.483 300.777 194 299.029 195.911C297.281 197.822 295.961 200.083 295.156 202.545C294.351 205.006 294.08 207.611 294.36 210.186L301.639 294.874H438.448L431.169 210.186C430.623 204.711 428.083 199.628 424.033 195.904C419.983 192.18 414.705 190.075 409.204 189.989Z" fill="#F5F5F5"/>
<path d="M335.814 273.198H459.395C461.257 273.198 463.043 273.937 464.36 275.254C465.676 276.571 466.416 278.357 466.416 280.219V293.973C466.416 295.835 465.676 297.621 464.36 298.938C463.043 300.255 461.257 300.994 459.395 300.994H335.814C335.246 300.994 334.7 300.769 334.298 300.366C333.896 299.964 333.67 299.419 333.67 298.85V275.266C333.69 274.711 333.924 274.185 334.324 273.799C334.724 273.413 335.259 273.197 335.814 273.198Z" fill="#E0E0E0"/>
<path d="M264.838 235.259C264.181 235.259 263.527 235.281 262.876 235.324C258.748 235.615 254.736 236.816 251.127 238.841C247.517 240.865 244.401 243.663 242 247.034C239.599 250.405 237.974 254.265 237.241 258.338C236.508 262.411 236.685 266.596 237.76 270.592C240.823 282.521 242.301 294.801 242.155 307.115V342.985C242.155 344.233 242.651 345.43 243.533 346.312C244.416 347.195 245.613 347.691 246.861 347.691H324.045V235.259H264.838Z" fill="#F0F0F0"/>
<path d="M352.087 263.293C352.075 259.307 351.213 255.369 349.558 251.742C347.904 248.116 345.496 244.883 342.494 242.261C339.492 239.639 335.965 237.686 332.149 236.534C328.333 235.382 324.315 235.057 320.364 235.58C316.412 236.103 312.617 237.463 309.232 239.568C305.848 241.673 302.951 244.476 300.734 247.789C298.518 251.103 297.034 254.85 296.38 258.782C295.726 262.715 295.919 266.741 296.944 270.593C300.007 282.521 301.485 294.801 301.339 307.116V342.985C301.339 343.604 301.461 344.217 301.698 344.788C301.935 345.36 302.283 345.879 302.721 346.317C303.159 346.754 303.679 347.1 304.251 347.336C304.824 347.572 305.437 347.693 306.056 347.691H342C342.618 347.693 343.231 347.572 343.802 347.336C344.374 347.1 344.893 346.753 345.331 346.316C345.768 345.879 346.115 345.359 346.351 344.788C346.587 344.216 346.707 343.603 346.706 342.985V305.015C346.605 293.461 348.069 281.947 351.058 270.786C351.735 268.345 352.081 265.825 352.087 263.293Z" fill="#F5F5F5"/>
<path d="M461.539 351.111H266.842C265.935 351.111 265.065 350.75 264.424 350.109C263.783 349.468 263.422 348.598 263.422 347.691H464.958C464.958 348.598 464.598 349.468 463.957 350.109C463.315 350.75 462.446 351.111 461.539 351.111Z" fill="#E0E0E0"/>
<path d="M72.9279 37.4758H49.4297V351.111H72.9279V37.4758Z" fill="#E6E6E6"/>
<path d="M72.917 351.111H279.138L279.138 37.4761H72.917L72.917 351.111Z" fill="#F5F5F5"/>
<path d="M275.29 351.111V42.0959L76.7766 42.0959L76.7766 351.111H275.29Z" fill="#E6E6E6"/>
<path d="M93.3926 351.111L93.3926 42.0959H76.7766L76.7766 351.111H93.3926Z" fill="#E0E0E0"/>
<path d="M277.38 296.02V291.411H76.7765V296.02H277.38Z" fill="#F5F5F5"/>
<path d="M277.38 231.272V226.662H76.7765V231.272H277.38Z" fill="#F5F5F5"/>
<path d="M277.38 166.534V161.913H76.7765V166.534H277.38Z" fill="#F5F5F5"/>
<path d="M277.38 101.774V97.1646L76.7765 97.1646V101.774L277.38 101.774Z" fill="#F5F5F5"/>
<path d="M94.4651 97.175H124.299V53.1909L94.4651 53.1909V97.175Z" fill="#FAFAFA"/>
<path d="M127.472 53.1804H121.748C120.848 53.1804 120.118 53.9099 120.118 54.8099V95.5351C120.118 96.4351 120.848 97.1646 121.748 97.1646H127.472C128.372 97.1646 129.102 96.4351 129.102 95.5351V54.8099C129.102 53.9099 128.372 53.1804 127.472 53.1804Z" fill="#F0F0F0"/>
<path d="M84.4089 97.175H114.243V53.1909L84.4089 53.1909V97.175Z" fill="#FAFAFA"/>
<path d="M117.438 53.1804H111.713C110.814 53.1804 110.084 53.9099 110.084 54.8099V95.5351C110.084 96.4351 110.814 97.1646 111.713 97.1646H117.438C118.338 97.1646 119.067 96.4351 119.067 95.5351V54.8099C119.067 53.9099 118.338 53.1804 117.438 53.1804Z" fill="#E6E6E6"/>
<path d="M76.7769 53.1804H102.526L100.479 97.1753H76.7769V53.1804Z" fill="#FAFAFA"/>
<path d="M105.849 53.1804H99.8347C99.397 53.2237 98.992 53.4314 98.7015 53.7617C98.411 54.092 98.2566 54.5203 98.2696 54.9599L96.3829 95.3958C96.3545 95.6054 96.3686 95.8186 96.4244 96.0227C96.4801 96.2267 96.5764 96.4175 96.7074 96.5835C96.8385 96.7496 97.0016 96.8876 97.1872 96.9893C97.3727 97.0909 97.5767 97.1542 97.7872 97.1753H103.801C104.237 97.1273 104.639 96.9181 104.929 96.5889C105.218 96.2597 105.374 95.8341 105.366 95.3958L107.253 54.9599C107.283 54.7501 107.27 54.5363 107.215 54.3317C107.16 54.127 107.064 53.9356 106.932 53.7692C106.801 53.6028 106.637 53.4648 106.451 53.3636C106.265 53.2624 106.06 53.2001 105.849 53.1804Z" fill="#F0F0F0"/>
<path d="M232.431 97.1646H255.05V60.0305H232.431V97.1646Z" fill="#FAFAFA"/>
<path d="M257.398 60.0415H253.185C252.468 60.0415 251.888 60.6222 251.888 61.3386V95.8785C251.888 96.5948 252.468 97.1756 253.185 97.1756H257.398C258.114 97.1756 258.695 96.5948 258.695 95.8785V61.3386C258.695 60.6222 258.114 60.0415 257.398 60.0415Z" fill="#F0F0F0"/>
<path d="M224.809 97.1646H247.428V60.0305H224.809V97.1646Z" fill="#FAFAFA"/>
<path d="M249.787 60.0415H245.574C244.858 60.0415 244.277 60.6222 244.277 61.3386V95.8785C244.277 96.5948 244.858 97.1756 245.574 97.1756H249.787C250.504 97.1756 251.085 96.5948 251.085 95.8785V61.3386C251.085 60.6222 250.504 60.0415 249.787 60.0415Z" fill="#E6E6E6"/>
<path d="M219.021 60.0415H238.542L236.988 97.1756H219.021V60.0415Z" fill="#FAFAFA"/>
<path d="M241.06 60.0415H236.504C235.882 60.0415 235.357 60.7169 235.314 61.5423L233.888 95.6748C233.888 96.5002 234.328 97.1756 234.96 97.1756H239.527C240.149 97.1756 240.674 96.5002 240.706 95.6748L242.143 61.5423C242.164 60.7169 241.682 60.0415 241.06 60.0415Z" fill="#F0F0F0"/>
<path d="M203.261 97.1646H225.88V60.0305H203.261V97.1646Z" fill="#FAFAFA"/>
<path d="M228.229 60.0415H224.016C223.3 60.0415 222.719 60.6222 222.719 61.3386V95.8785C222.719 96.5948 223.3 97.1756 224.016 97.1756H228.229C228.946 97.1756 229.526 96.5948 229.526 95.8785V61.3386C229.526 60.6222 228.946 60.0415 228.229 60.0415Z" fill="#F0F0F0"/>
<path d="M195.651 97.1646H218.27V60.0305H195.651V97.1646Z" fill="#FAFAFA"/>
<path d="M220.618 60.0415H216.405C215.688 60.0415 215.107 60.6222 215.107 61.3386V95.8785C215.107 96.5948 215.688 97.1756 216.405 97.1756H220.618C221.334 97.1756 221.915 96.5948 221.915 95.8785V61.3386C221.915 60.6222 221.334 60.0415 220.618 60.0415Z" fill="#E6E6E6"/>
<path d="M189.862 60.0415H209.373L207.829 97.1756H189.862V60.0415Z" fill="#FAFAFA"/>
<path d="M211.903 60.0415H207.336C206.714 60.0415 206.189 60.7169 206.157 61.5423L204.752 95.6748C204.752 96.5002 205.203 97.1756 205.824 97.1756H210.38C211.002 97.1756 211.527 96.5002 211.57 95.6748L212.996 61.5423C212.996 60.7169 212.524 60.0415 211.903 60.0415Z" fill="#F0F0F0"/>
<path d="M160.65 97.175H176.419V57.2645H160.65V97.175Z" fill="#FAFAFA"/>
<path d="M177.845 57.2539H175.347C174.726 57.2539 174.222 57.7579 174.222 58.3795V96.0389C174.222 96.6605 174.726 97.1645 175.347 97.1645H177.845C178.467 97.1645 178.971 96.6605 178.971 96.0389V58.3795C178.971 57.7579 178.467 57.2539 177.845 57.2539Z" fill="#F0F0F0"/>
<path d="M147.517 97.175H164.895V53.1909H147.517V97.175Z" fill="#FAFAFA"/>
<path d="M166.46 53.1804H163.716C163.029 53.1804 162.472 53.7372 162.472 54.4239V95.9211C162.472 96.6078 163.029 97.1646 163.716 97.1646H166.46C167.147 97.1646 167.704 96.6078 167.704 95.9211V54.4239C167.704 53.7372 167.147 53.1804 166.46 53.1804Z" fill="#F5F5F5"/>
<path d="M143.069 53.1804H158.066L156.876 97.1753H143.069V53.1804Z" fill="#FAFAFA"/>
<path d="M160.006 53.1804H156.512C156.04 53.1804 155.622 53.9737 155.6 54.9599L154.528 95.3958C154.528 96.3713 154.861 97.1753 155.343 97.1753H158.848C159.32 97.1753 159.728 96.3713 159.76 95.3958L160.832 54.9599C160.8 53.9737 160.478 53.1804 160.006 53.1804Z" fill="#F0F0F0"/>
<path d="M173.889 161.924H203.723V117.94H173.889V161.924Z" fill="#FAFAFA"/>
<path d="M206.907 117.929H201.182C200.282 117.929 199.553 118.659 199.553 119.559V160.284C199.553 161.184 200.282 161.913 201.182 161.913H206.907C207.807 161.913 208.536 161.184 208.536 160.284V119.559C208.536 118.659 207.807 117.929 206.907 117.929Z" fill="#F0F0F0"/>
<path d="M163.855 161.924H193.688V117.94H163.855V161.924Z" fill="#FAFAFA"/>
<path d="M196.862 117.929H191.137C190.237 117.929 189.508 118.659 189.508 119.559V160.284C189.508 161.184 190.237 161.913 191.137 161.913H196.862C197.762 161.913 198.491 161.184 198.491 160.284V119.559C198.491 118.659 197.762 117.929 196.862 117.929Z" fill="#E6E6E6"/>
<path d="M156.212 117.929H181.951L179.903 161.924H156.212V117.929Z" fill="#FAFAFA"/>
<path d="M185.284 117.929H179.27C178.833 117.972 178.427 118.18 178.137 118.51C177.846 118.841 177.692 119.269 177.705 119.709L175.808 160.145C175.778 160.354 175.791 160.568 175.846 160.773C175.901 160.978 175.997 161.169 176.128 161.335C176.26 161.502 176.424 161.64 176.61 161.741C176.796 161.842 177.001 161.904 177.212 161.924H183.226C183.662 161.876 184.064 161.667 184.353 161.338C184.643 161.008 184.799 160.583 184.791 160.145L186.667 119.709C186.699 119.5 186.687 119.288 186.634 119.084C186.581 118.88 186.487 118.689 186.358 118.522C186.228 118.356 186.066 118.217 185.882 118.115C185.697 118.013 185.494 117.95 185.284 117.929Z" fill="#F0F0F0"/>
<path d="M219.62 161.913H237.898V124.779H219.62V161.913Z" fill="#FAFAFA"/>
<path d="M239.677 124.79H236.515C235.869 124.79 235.346 125.313 235.346 125.959V160.756C235.346 161.401 235.869 161.924 236.515 161.924H239.677C240.322 161.924 240.846 161.401 240.846 160.756V125.959C240.846 125.313 240.322 124.79 239.677 124.79Z" fill="#F0F0F0"/>
<path d="M213.468 161.913H231.745V124.779H213.468V161.913Z" fill="#FAFAFA"/>
<path d="M233.525 124.79H230.362C229.717 124.79 229.194 125.313 229.194 125.959V160.756C229.194 161.401 229.717 161.924 230.362 161.924H233.525C234.17 161.924 234.693 161.401 234.693 160.756V125.959C234.693 125.313 234.17 124.79 233.525 124.79Z" fill="#E6E6E6"/>
<path d="M208.782 124.79H224.562L223.307 161.924H208.782V124.79Z" fill="#FAFAFA"/>
<path d="M226.6 124.79H222.912C222.408 124.79 221.98 125.466 221.958 126.291L220.833 160.424C220.833 161.249 221.186 161.924 221.69 161.924H225.378C225.882 161.924 226.31 161.249 226.332 160.424L227.49 126.291C227.49 125.466 227.104 124.79 226.6 124.79Z" fill="#F0F0F0"/>
<path d="M250.119 161.924H265.255V131.168H250.119V161.924Z" fill="#FAFAFA"/>
<path d="M266.724 131.157H264.098C263.565 131.157 263.133 131.589 263.133 132.122V160.948C263.133 161.481 263.565 161.913 264.098 161.913H266.724C267.257 161.913 267.689 161.481 267.689 160.948V132.122C267.689 131.589 267.257 131.157 266.724 131.157Z" fill="#F0F0F0"/>
<path d="M245.016 161.924H260.153V131.168H245.016V161.924Z" fill="#FAFAFA"/>
<path d="M261.632 131.157H259.006C258.473 131.157 258.041 131.589 258.041 132.122V160.948C258.041 161.481 258.473 161.913 259.006 161.913H261.632C262.165 161.913 262.597 161.481 262.597 160.948V132.122C262.597 131.589 262.165 131.157 261.632 131.157Z" fill="#E6E6E6"/>
<path d="M241.136 131.157H254.204L253.164 161.924H241.136V131.157Z" fill="#FAFAFA"/>
<path d="M255.897 131.157H252.842C252.424 131.157 252.07 131.715 252.049 132.401L251.095 160.68C251.095 161.366 251.384 161.924 251.802 161.924H254.857C255.265 161.924 255.629 161.366 255.651 160.68L256.605 132.401C256.626 131.715 256.305 131.157 255.897 131.157Z" fill="#F0F0F0"/>
<path d="M126.067 161.913H148.687V124.779H126.067V161.913Z" fill="#FAFAFA"/>
<path d="M151.044 124.79H146.831C146.115 124.79 145.534 125.371 145.534 126.087V160.627C145.534 161.344 146.115 161.924 146.831 161.924H151.044C151.761 161.924 152.341 161.344 152.341 160.627V126.087C152.341 125.371 151.761 124.79 151.044 124.79Z" fill="#F0F0F0"/>
<path d="M118.467 161.913H141.086V124.779H118.467V161.913Z" fill="#FAFAFA"/>
<path d="M143.423 124.79H139.21C138.493 124.79 137.913 125.371 137.913 126.087V160.627C137.913 161.344 138.493 161.924 139.21 161.924H143.423C144.139 161.924 144.72 161.344 144.72 160.627V126.087C144.72 125.371 144.139 124.79 143.423 124.79Z" fill="#E6E6E6"/>
<path d="M112.667 124.79H132.188L130.634 161.924H112.667V124.79Z" fill="#FAFAFA"/>
<path d="M134.708 124.79H130.152C129.803 124.848 129.487 125.034 129.267 125.311C129.047 125.589 128.939 125.938 128.962 126.291L127.568 160.424C127.568 161.249 128.008 161.924 128.64 161.924H133.196C133.546 161.867 133.861 161.681 134.081 161.404C134.301 161.126 134.41 160.777 134.386 160.424L135.812 126.291C135.812 125.466 135.33 124.79 134.708 124.79Z" fill="#F0F0F0"/>
<path d="M94.3583 161.924H110.127V122.014H94.3583V161.924Z" fill="#FAFAFA"/>
<path d="M111.542 122.003H109.044C108.422 122.003 107.918 122.507 107.918 123.129V160.788C107.918 161.41 108.422 161.914 109.044 161.914H111.542C112.163 161.914 112.667 161.41 112.667 160.788V123.129C112.667 122.507 112.163 122.003 111.542 122.003Z" fill="#F0F0F0"/>
<path d="M81.2249 161.924H98.6021V117.94H81.2249V161.924Z" fill="#FAFAFA"/>
<path d="M100.158 117.929H97.4134C96.7267 117.929 96.1699 118.486 96.1699 119.173V160.67C96.1699 161.357 96.7267 161.913 97.4134 161.913H100.158C100.845 161.913 101.401 161.357 101.401 160.67V119.173C101.401 118.486 100.845 117.929 100.158 117.929Z" fill="#F5F5F5"/>
<path d="M76.7769 117.929H91.7741L90.5842 161.924H76.7769V117.929Z" fill="#FAFAFA"/>
<path d="M93.7142 117.929H90.2088C89.7264 117.929 89.319 118.722 89.2976 119.709L88.2256 160.145C88.2256 161.12 88.5686 161.924 89.051 161.924H92.5136C92.996 161.924 93.4033 161.12 93.4248 160.145L94.4968 119.709C94.5504 118.722 94.1859 117.929 93.7142 117.929Z" fill="#F0F0F0"/>
<path d="M94.4651 226.672H124.299V182.688H94.4651V226.672Z" fill="#FAFAFA"/>
<path d="M127.472 182.678H121.748C120.848 182.678 120.118 183.408 120.118 184.308V225.033C120.118 225.933 120.848 226.662 121.748 226.662H127.472C128.372 226.662 129.102 225.933 129.102 225.033V184.308C129.102 183.408 128.372 182.678 127.472 182.678Z" fill="#F0F0F0"/>
<path d="M84.4089 226.672H114.243V182.688H84.4089V226.672Z" fill="#FAFAFA"/>
<path d="M117.438 182.678H111.713C110.814 182.678 110.084 183.408 110.084 184.308V225.033C110.084 225.933 110.814 226.662 111.713 226.662H117.438C118.338 226.662 119.067 225.933 119.067 225.033V184.308C119.067 183.408 118.338 182.678 117.438 182.678Z" fill="#E6E6E6"/>
<path d="M76.7769 182.678H102.526L100.479 226.673H76.7769V182.678Z" fill="#FAFAFA"/>
<path d="M105.849 182.678H99.8347C99.397 182.721 98.992 182.929 98.7015 183.26C98.411 183.59 98.2566 184.018 98.2696 184.458L96.3829 224.894C96.3545 225.103 96.3686 225.316 96.4244 225.52C96.4801 225.725 96.5764 225.915 96.7074 226.081C96.8385 226.247 97.0016 226.385 97.1872 226.487C97.3727 226.589 97.5767 226.652 97.7872 226.673H103.801C104.237 226.625 104.639 226.416 104.929 226.087C105.218 225.757 105.374 225.332 105.366 224.894L107.253 184.458C107.283 184.248 107.27 184.034 107.215 183.829C107.16 183.625 107.064 183.433 106.932 183.267C106.801 183.101 106.637 182.963 106.451 182.861C106.265 182.76 106.06 182.698 105.849 182.678Z" fill="#F0F0F0"/>
<path d="M232.431 226.662H255.05V189.528H232.431V226.662Z" fill="#FAFAFA"/>
<path d="M257.398 189.539H253.185C252.468 189.539 251.888 190.12 251.888 190.836V225.376C251.888 226.092 252.468 226.673 253.185 226.673H257.398C258.114 226.673 258.695 226.092 258.695 225.376V190.836C258.695 190.12 258.114 189.539 257.398 189.539Z" fill="#F0F0F0"/>
<path d="M224.809 226.662H247.428V189.528H224.809V226.662Z" fill="#FAFAFA"/>
<path d="M249.787 189.539H245.574C244.858 189.539 244.277 190.12 244.277 190.836V225.376C244.277 226.092 244.858 226.673 245.574 226.673H249.787C250.504 226.673 251.085 226.092 251.085 225.376V190.836C251.085 190.12 250.504 189.539 249.787 189.539Z" fill="#E6E6E6"/>
<path d="M219.021 189.539H238.542L236.988 226.673H219.021V189.539Z" fill="#FAFAFA"/>
<path d="M241.06 189.539H236.504C235.882 189.539 235.357 190.214 235.314 191.04L233.888 225.172C233.888 225.998 234.328 226.673 234.96 226.673H239.527C240.149 226.673 240.674 225.998 240.706 225.172L242.143 191.04C242.164 190.214 241.682 189.539 241.06 189.539Z" fill="#F0F0F0"/>
<path d="M203.261 226.662H225.88V189.528H203.261V226.662Z" fill="#FAFAFA"/>
<path d="M228.229 189.539H224.016C223.3 189.539 222.719 190.12 222.719 190.836V225.376C222.719 226.092 223.3 226.673 224.016 226.673H228.229C228.946 226.673 229.526 226.092 229.526 225.376V190.836C229.526 190.12 228.946 189.539 228.229 189.539Z" fill="#F0F0F0"/>
<path d="M195.651 226.662H218.27V189.528H195.651V226.662Z" fill="#FAFAFA"/>
<path d="M220.618 189.539H216.405C215.688 189.539 215.107 190.12 215.107 190.836V225.376C215.107 226.092 215.688 226.673 216.405 226.673H220.618C221.334 226.673 221.915 226.092 221.915 225.376V190.836C221.915 190.12 221.334 189.539 220.618 189.539Z" fill="#E6E6E6"/>
<path d="M189.862 189.539H209.373L207.829 226.673H189.862V189.539Z" fill="#FAFAFA"/>
<path d="M211.903 189.539H207.336C206.714 189.539 206.189 190.214 206.157 191.04L204.752 225.172C204.752 225.998 205.203 226.673 205.824 226.673H210.38C211.002 226.673 211.527 225.998 211.57 225.172L212.996 191.04C212.996 190.214 212.524 189.539 211.903 189.539Z" fill="#F0F0F0"/>
<path d="M160.65 226.672H176.419V186.762H160.65V226.672Z" fill="#FAFAFA"/>
<path d="M177.845 186.752H175.347C174.726 186.752 174.222 187.256 174.222 187.877V225.537C174.222 226.158 174.726 226.662 175.347 226.662H177.845C178.467 226.662 178.971 226.158 178.971 225.537V187.877C178.971 187.256 178.467 186.752 177.845 186.752Z" fill="#F0F0F0"/>
<path d="M147.517 226.672H164.895V182.688H147.517V226.672Z" fill="#FAFAFA"/>
<path d="M166.46 182.678H163.716C163.029 182.678 162.472 183.235 162.472 183.922V225.419C162.472 226.106 163.029 226.662 163.716 226.662H166.46C167.147 226.662 167.704 226.106 167.704 225.419V183.922C167.704 183.235 167.147 182.678 166.46 182.678Z" fill="#F5F5F5"/>
<path d="M143.069 182.678H158.066L156.876 226.673H143.069V182.678Z" fill="#FAFAFA"/>
<path d="M160.006 182.678H156.512C156.04 182.678 155.622 183.472 155.6 184.458L154.528 224.894C154.528 225.869 154.861 226.673 155.343 226.673H158.848C159.32 226.673 159.728 225.869 159.76 224.894L160.832 184.458C160.8 183.45 160.478 182.678 160.006 182.678Z" fill="#F0F0F0"/>
<path d="M88.0967 351.111H107.21V307.127H88.0967V351.111Z" fill="#FAFAFA"/>
<path d="M109.001 307.116H105.838C105.122 307.116 104.541 307.697 104.541 308.413V349.803C104.541 350.519 105.122 351.1 105.838 351.1H109.001C109.717 351.1 110.298 350.519 110.298 349.803V308.413C110.298 307.697 109.717 307.116 109.001 307.116Z" fill="#F0F0F0"/>
<path d="M81.6753 351.111H100.789V307.127H81.6753V351.111Z" fill="#FAFAFA"/>
<path d="M102.569 307.116H99.4065C98.6901 307.116 98.1094 307.697 98.1094 308.413V349.803C98.1094 350.519 98.6901 351.1 99.4065 351.1H102.569C103.285 351.1 103.866 350.519 103.866 349.803V308.413C103.866 307.697 103.285 307.116 102.569 307.116Z" fill="#E6E6E6"/>
<path d="M76.7769 307.126H93.2642L91.9564 351.111H76.7769V307.126Z" fill="#FAFAFA"/>
<path d="M95.4079 307.116H91.5487C91.0234 307.116 90.5731 307.92 90.541 308.895L89.3403 349.331C89.3403 350.318 89.7155 351.111 90.2408 351.111H94.0893C94.6146 351.111 95.0648 350.318 95.097 349.331L96.2976 308.874C96.3298 307.92 95.9224 307.116 95.4079 307.116Z" fill="#F0F0F0"/>
<path d="M248.018 351.111H267.947V313.977H248.018V351.111Z" fill="#FAFAFA"/>
<path d="M269.94 313.977H266.381C265.706 313.977 265.159 314.524 265.159 315.199V349.889C265.159 350.563 265.706 351.111 266.381 351.111H269.94C270.615 351.111 271.162 350.563 271.162 349.889V315.199C271.162 314.524 270.615 313.977 269.94 313.977Z" fill="#F0F0F0"/>
<path d="M241.307 351.111H261.236V313.977H241.307V351.111Z" fill="#FAFAFA"/>
<path d="M263.23 313.977H259.671C258.996 313.977 258.449 314.524 258.449 315.199V349.889C258.449 350.563 258.996 351.111 259.671 351.111H263.23C263.905 351.111 264.452 350.563 264.452 349.889V315.199C264.452 314.524 263.905 313.977 263.23 313.977Z" fill="#E6E6E6"/>
<path d="M236.204 313.977H253.399L252.027 351.111H236.204V313.977Z" fill="#FAFAFA"/>
<path d="M255.629 313.977H251.609C251.063 313.977 250.537 314.652 250.537 315.477L249.305 349.61C249.305 350.435 249.691 351.111 250.237 351.111H254.257C254.804 351.111 255.276 350.435 255.329 349.61L256.584 315.477C256.594 314.652 256.208 313.977 255.629 313.977Z" fill="#F0F0F0"/>
<path d="M222.311 351.111H242.239V313.977H222.311V351.111Z" fill="#FAFAFA"/>
<path d="M244.233 313.977H240.674C239.999 313.977 239.452 314.524 239.452 315.199V349.889C239.452 350.563 239.999 351.111 240.674 351.111H244.233C244.908 351.111 245.455 350.563 245.455 349.889V315.199C245.455 314.524 244.908 313.977 244.233 313.977Z" fill="#F0F0F0"/>
<path d="M215.601 351.111H235.529V313.977H215.601V351.111Z" fill="#FAFAFA"/>
<path d="M237.523 313.977H233.964C233.289 313.977 232.742 314.524 232.742 315.199V349.889C232.742 350.563 233.289 351.111 233.964 351.111H237.523C238.198 351.111 238.745 350.563 238.745 349.889V315.199C238.745 314.524 238.198 313.977 237.523 313.977Z" fill="#E6E6E6"/>
<path d="M210.498 313.977H227.693L226.331 351.111H210.498V313.977Z" fill="#FAFAFA"/>
<path d="M229.922 313.977H225.902C225.356 313.977 224.884 314.652 224.83 315.477L223.598 349.61C223.598 350.435 223.984 351.111 224.53 351.111H228.55C229.097 351.111 229.622 350.435 229.622 349.61L230.877 315.477C230.887 314.652 230.48 313.977 229.922 313.977Z" fill="#F0F0F0"/>
<path d="M201.847 351.111H215.74V311.201H201.847V351.111Z" fill="#FAFAFA"/>
<path d="M214.861 311.2H216.93C217.214 311.2 217.487 311.313 217.688 311.514C217.889 311.715 218.002 311.988 218.002 312.272V350.071C218.002 350.355 217.889 350.628 217.688 350.829C217.487 351.03 217.214 351.143 216.93 351.143H214.861C214.576 351.143 214.304 351.03 214.103 350.829C213.902 350.628 213.789 350.355 213.789 350.071V312.25C213.794 311.97 213.91 311.703 214.11 311.506C214.31 311.31 214.58 311.2 214.861 311.2Z" fill="#F0F0F0"/>
<path d="M190.28 351.111H205.588V307.127H190.28V351.111Z" fill="#FAFAFA"/>
<path d="M206.886 307.116H204.613C203.968 307.116 203.445 307.639 203.445 308.284V349.932C203.445 350.577 203.968 351.1 204.613 351.1H206.886C207.531 351.1 208.054 350.577 208.054 349.932V308.284C208.054 307.639 207.531 307.116 206.886 307.116Z" fill="#F5F5F5"/>
<path d="M186.356 307.126H199.574L198.523 351.111H186.356V307.126Z" fill="#FAFAFA"/>
<path d="M201.279 307.116H198.191C197.773 307.116 197.409 307.92 197.387 308.895L196.422 349.331C196.422 350.318 196.723 351.111 197.141 351.111H200.228C200.646 351.111 201.011 350.318 201.032 349.331L201.997 308.895C202.018 307.92 201.697 307.116 201.279 307.116Z" fill="#F0F0F0"/>
<path d="M173.889 291.421H203.723V247.437H173.889V291.421Z" fill="#FAFAFA"/>
<path d="M206.907 247.427H201.182C200.282 247.427 199.553 248.156 199.553 249.056V289.781C199.553 290.681 200.282 291.411 201.182 291.411H206.907C207.807 291.411 208.536 290.681 208.536 289.781V249.056C208.536 248.156 207.807 247.427 206.907 247.427Z" fill="#F0F0F0"/>
<path d="M163.855 291.421H193.688V247.437H163.855V291.421Z" fill="#FAFAFA"/>
<path d="M196.862 247.427H191.137C190.237 247.427 189.508 248.156 189.508 249.056V289.781C189.508 290.681 190.237 291.411 191.137 291.411H196.862C197.762 291.411 198.491 290.681 198.491 289.781V249.056C198.491 248.156 197.762 247.427 196.862 247.427Z" fill="#E6E6E6"/>
<path d="M156.212 247.427H181.951L179.903 291.421H156.212V247.427Z" fill="#FAFAFA"/>
<path d="M185.284 247.427H179.27C178.833 247.472 178.43 247.681 178.14 248.01C177.85 248.34 177.695 248.767 177.705 249.206L175.808 289.642C175.778 289.852 175.791 290.065 175.846 290.27C175.901 290.475 175.997 290.666 176.128 290.833C176.26 290.999 176.424 291.137 176.61 291.238C176.796 291.339 177.001 291.402 177.212 291.421H183.226C183.662 291.373 184.064 291.164 184.353 290.835C184.643 290.506 184.799 290.08 184.791 289.642L186.667 249.206C186.697 248.998 186.685 248.786 186.631 248.582C186.577 248.379 186.483 248.189 186.354 248.022C186.225 247.856 186.063 247.718 185.88 247.616C185.696 247.513 185.493 247.449 185.284 247.427Z" fill="#F0F0F0"/>
<path d="M219.62 291.411H237.898V254.277H219.62V291.411Z" fill="#FAFAFA"/>
<path d="M239.677 254.287H236.515C235.869 254.287 235.346 254.811 235.346 255.456V290.253C235.346 290.898 235.869 291.421 236.515 291.421H239.677C240.322 291.421 240.846 290.898 240.846 290.253V255.456C240.846 254.811 240.322 254.287 239.677 254.287Z" fill="#F0F0F0"/>
<path d="M213.468 291.411H231.745V254.277H213.468V291.411Z" fill="#FAFAFA"/>
<path d="M233.525 254.287H230.362C229.717 254.287 229.194 254.811 229.194 255.456V290.253C229.194 290.898 229.717 291.421 230.362 291.421H233.525C234.17 291.421 234.693 290.898 234.693 290.253V255.456C234.693 254.811 234.17 254.287 233.525 254.287Z" fill="#E6E6E6"/>
<path d="M208.782 254.287H224.562L223.307 291.421H208.782V254.287Z" fill="#FAFAFA"/>
<path d="M226.6 254.287H222.912C222.408 254.287 221.98 254.963 221.958 255.788L220.833 289.921C220.833 290.746 221.186 291.421 221.69 291.421H225.378C225.882 291.421 226.31 290.746 226.332 289.921L227.49 255.788C227.49 254.963 227.104 254.287 226.6 254.287Z" fill="#F0F0F0"/>
<path d="M250.119 291.421H265.255V260.666H250.119V291.421Z" fill="#FAFAFA"/>
<path d="M266.724 260.655H264.098C263.565 260.655 263.133 261.087 263.133 261.62V290.446C263.133 290.979 263.565 291.411 264.098 291.411H266.724C267.257 291.411 267.689 290.979 267.689 290.446V261.62C267.689 261.087 267.257 260.655 266.724 260.655Z" fill="#F0F0F0"/>
<path d="M245.016 291.421H260.153V260.666H245.016V291.421Z" fill="#FAFAFA"/>
<path d="M261.632 260.655H259.006C258.473 260.655 258.041 261.087 258.041 261.62V290.446C258.041 290.979 258.473 291.411 259.006 291.411H261.632C262.165 291.411 262.597 290.979 262.597 290.446V261.62C262.597 261.087 262.165 260.655 261.632 260.655Z" fill="#E6E6E6"/>
<path d="M241.136 260.655H254.204L253.164 291.422H241.136V260.655Z" fill="#FAFAFA"/>
<path d="M255.897 260.634H252.842C252.424 260.634 252.07 261.191 252.049 261.877L251.095 290.157C251.095 290.843 251.384 291.4 251.802 291.4H254.857C255.265 291.4 255.629 290.843 255.651 290.157L256.605 261.877C256.626 261.213 256.305 260.634 255.897 260.634Z" fill="#F0F0F0"/>
<path d="M126.067 291.411H148.687V254.277H126.067V291.411Z" fill="#FAFAFA"/>
<path d="M151.044 254.287H146.831C146.115 254.287 145.534 254.868 145.534 255.584V290.124C145.534 290.841 146.115 291.421 146.831 291.421H151.044C151.761 291.421 152.341 290.841 152.341 290.124V255.584C152.341 254.868 151.761 254.287 151.044 254.287Z" fill="#F0F0F0"/>
<path d="M118.467 291.411H141.086V254.277H118.467V291.411Z" fill="#FAFAFA"/>
<path d="M143.423 254.287H139.21C138.493 254.287 137.913 254.868 137.913 255.584V290.124C137.913 290.841 138.493 291.421 139.21 291.421H143.423C144.139 291.421 144.72 290.841 144.72 290.124V255.584C144.72 254.868 144.139 254.287 143.423 254.287Z" fill="#E6E6E6"/>
<path d="M112.667 254.287H132.188L130.634 291.421H112.667V254.287Z" fill="#FAFAFA"/>
<path d="M134.708 254.287H130.152C129.803 254.345 129.487 254.531 129.267 254.808C129.047 255.086 128.939 255.435 128.962 255.788L127.568 289.921C127.568 290.746 128.008 291.421 128.64 291.421H133.196C133.546 291.364 133.861 291.178 134.081 290.901C134.301 290.623 134.41 290.274 134.386 289.921L135.812 255.788C135.812 254.963 135.33 254.287 134.708 254.287Z" fill="#F0F0F0"/>
<path d="M94.3583 291.421H110.127V251.511H94.3583V291.421Z" fill="#FAFAFA"/>
<path d="M111.542 251.501H109.044C108.422 251.501 107.918 252.005 107.918 252.626V290.286C107.918 290.907 108.422 291.411 109.044 291.411H111.542C112.163 291.411 112.667 290.907 112.667 290.286V252.626C112.667 252.005 112.163 251.501 111.542 251.501Z" fill="#F0F0F0"/>
<path d="M81.2249 291.421H98.6021V247.437H81.2249V291.421Z" fill="#FAFAFA"/>
<path d="M100.158 247.427H97.4134C96.7267 247.427 96.1699 247.983 96.1699 248.67V290.167C96.1699 290.854 96.7267 291.411 97.4134 291.411H100.158C100.845 291.411 101.401 290.854 101.401 290.167V248.67C101.401 247.983 100.845 247.427 100.158 247.427Z" fill="#F5F5F5"/>
<path d="M76.7769 247.427H91.7741L90.5842 291.421H76.7769V247.427Z" fill="#FAFAFA"/>
<path d="M93.7142 247.427H90.2088C89.7264 247.427 89.319 248.231 89.2976 249.206L88.2256 289.642C88.2256 290.617 88.5686 291.421 89.051 291.421H92.5136C92.996 291.421 93.4033 290.617 93.4248 289.642L94.4968 249.206C94.5504 248.231 94.1859 247.427 93.7142 247.427Z" fill="#F0F0F0"/>
<path d="M165.452 351.111H187.567V303.6H165.452V351.111Z" fill="#FAFAFA"/>
<path d="M189.68 303.599H185.938C185.133 303.599 184.48 304.252 184.48 305.057V349.653C184.48 350.458 185.133 351.11 185.938 351.11H189.68C190.485 351.11 191.138 350.458 191.138 349.653V305.057C191.138 304.252 190.485 303.599 189.68 303.599Z" fill="#F0F0F0"/>
<path d="M158.013 351.111H180.128V303.6H158.013V351.111Z" fill="#FAFAFA"/>
<path d="M182.229 303.599H178.488C177.683 303.599 177.03 304.252 177.03 305.057V349.653C177.03 350.458 177.683 351.11 178.488 351.11H182.229C183.035 351.11 183.687 350.458 183.687 349.653V305.057C183.687 304.252 183.035 303.599 182.229 303.599Z" fill="#E6E6E6"/>
<path d="M152.342 303.599H171.424L169.912 351.11H152.342V303.599Z" fill="#FAFAFA"/>
<path d="M173.9 303.599H169.44C168.829 303.599 168.304 304.457 168.272 305.518L166.878 349.192C166.878 350.264 167.307 351.11 167.95 351.11H172.409C173.02 351.11 173.481 350.253 173.567 349.192L174.961 305.518C174.972 304.457 174.5 303.599 173.9 303.599Z" fill="#F0F0F0"/>
<path d="M132.477 351.111H151.591V309.753H132.477V351.111Z" fill="#FAFAFA"/>
<path d="M153.414 309.753H150.187C149.489 309.753 148.922 310.319 148.922 311.018V349.846C148.922 350.544 149.489 351.111 150.187 351.111H153.414C154.113 351.111 154.679 350.544 154.679 349.846V311.018C154.679 310.319 154.113 309.753 153.414 309.753Z" fill="#F0F0F0"/>
<path d="M126.046 351.111H145.16V309.753H126.046V351.111Z" fill="#FAFAFA"/>
<path d="M146.982 309.753H143.755C143.057 309.753 142.49 310.319 142.49 311.018V349.846C142.49 350.544 143.057 351.111 143.755 351.111H146.982C147.681 351.111 148.247 350.544 148.247 349.846V311.018C148.247 310.319 147.681 309.753 146.982 309.753Z" fill="#E6E6E6"/>
<path d="M121.157 309.753H137.645L136.337 351.111H121.157V309.753Z" fill="#FAFAFA"/>
<path d="M139.778 309.753H135.93C135.405 309.753 134.954 310.503 134.922 311.425L133.722 349.438C133.722 350.36 134.086 351.111 134.611 351.111H138.471C138.996 351.111 139.446 350.36 139.468 349.438L140.679 311.425C140.711 310.503 140.304 309.753 139.778 309.753Z" fill="#F0F0F0"/>
<path d="M268 399.522C382.792 399.522 475.85 394.089 475.85 387.387C475.85 380.685 382.792 375.252 268 375.252C153.208 375.252 60.1499 380.685 60.1499 387.387C60.1499 394.089 153.208 399.522 268 399.522Z" fill="#F5F5F5"/>
<path d="M246.7 384.578C246.808 384.908 246.834 385.26 246.776 385.603C246.718 385.946 246.577 386.27 246.366 386.546C246.155 386.823 245.88 387.044 245.565 387.19C245.249 387.336 244.903 387.404 244.555 387.387H95.2259C90.5627 387.387 90.5627 357.017 95.2259 357.017H244.598C244.944 357 245.289 357.068 245.604 357.214C245.918 357.359 246.192 357.579 246.403 357.854C246.614 358.129 246.755 358.451 246.814 358.793C246.873 359.134 246.848 359.485 246.742 359.815C244.877 365.604 244.877 378.8 246.7 384.578Z" fill="#00A968"/>
<path opacity="0.8" d="M246.486 360.565H155.87C152.3 360.565 152.3 383.839 155.87 383.839H246.486C244.953 377.996 244.953 366.397 246.486 360.565Z" fill="white"/>
<path opacity="0.2" d="M151.356 384.578C151.464 384.908 151.49 385.26 151.432 385.603C151.374 385.946 151.234 386.27 151.023 386.546C150.812 386.823 150.536 387.044 150.221 387.19C149.906 387.336 149.559 387.404 149.212 387.387H95.2259C90.5627 387.387 90.5627 357.017 95.2259 357.017H149.255C149.601 357 149.946 357.068 150.26 357.214C150.574 357.359 150.849 357.579 151.059 357.854C151.27 358.129 151.411 358.451 151.47 358.793C151.529 359.134 151.505 359.485 151.399 359.815C149.533 365.604 149.533 378.8 151.356 384.578Z" fill="black"/>
<path d="M118.252 357.017H105.913C101.25 357.017 101.25 387.387 105.913 387.387H118.252C113.631 387.387 113.631 357.017 118.252 357.017Z" fill="#00A968"/>
<path d="M127.976 357.017H123.13C118.467 357.017 118.467 387.387 123.13 387.387H127.976C123.28 387.387 123.28 357.017 127.976 357.017Z" fill="#00A968"/>
<path d="M86.5212 354.498C86.0067 355.741 87.2716 357.017 88.9868 357.017H223.287C228.765 357.017 228.765 329.713 223.287 329.713H88.9761C87.2609 329.713 85.9959 330.978 86.5105 332.232C88.6545 337.432 88.6545 349.299 86.5212 354.498Z" fill="#263238"/>
<path opacity="0.2" d="M86.5212 354.498C86.0067 355.741 87.2716 357.017 88.9868 357.017H154.84C160.318 357.017 160.318 329.713 154.84 329.713H88.9761C87.2609 329.713 85.9959 330.978 86.5105 332.232C88.6545 337.432 88.6545 349.299 86.5212 354.498Z" fill="black"/>
<path opacity="0.8" d="M86.7568 332.897H152.149C156.34 332.897 156.34 353.822 152.149 353.822H86.7568C88.5578 348.537 88.5578 338.15 86.7568 332.897Z" fill="white"/>
<path opacity="0.2" d="M173.868 335.802C173.46 334.591 174.639 333.411 176.269 333.411H213.864C217.852 333.411 217.852 353.308 213.864 353.308H176.269C174.639 353.308 173.46 352.139 173.868 350.928C175.154 345.968 175.154 340.762 173.868 335.802Z" fill="white"/>
<path d="M445.662 342.309C445.781 342.671 445.815 343.056 445.761 343.434C445.708 343.812 445.569 344.172 445.355 344.488C445.141 344.804 444.857 345.066 444.526 345.255C444.194 345.444 443.824 345.555 443.443 345.578H285.645C280.713 345.578 280.713 310.202 285.645 310.202H443.443C443.818 310.228 444.182 310.338 444.508 310.524C444.834 310.71 445.114 310.967 445.327 311.276C445.541 311.585 445.682 311.938 445.739 312.309C445.797 312.68 445.771 313.059 445.662 313.418C443.743 320.226 443.743 335.587 445.662 342.309Z" fill="#00A968"/>
<path opacity="0.5" d="M445.662 342.309C445.781 342.671 445.815 343.056 445.761 343.434C445.708 343.812 445.569 344.172 445.355 344.488C445.141 344.804 444.857 345.066 444.526 345.255C444.194 345.444 443.824 345.555 443.443 345.578H285.645C280.713 345.578 280.713 310.202 285.645 310.202H443.443C443.818 310.228 444.182 310.338 444.508 310.524C444.834 310.71 445.114 310.967 445.327 311.276C445.541 311.585 445.682 311.938 445.739 312.309C445.797 312.68 445.771 313.059 445.662 313.418C443.743 320.226 443.743 335.587 445.662 342.309Z" fill="white"/>
<path opacity="0.8" d="M445.448 314.362H349.708C345.935 314.362 345.935 341.441 349.708 341.441H445.448C443.808 334.655 443.808 321.158 445.448 314.362Z" fill="white"/>
<path opacity="0.6" d="M344.937 342.309C345.056 342.671 345.09 343.056 345.036 343.434C344.983 343.812 344.844 344.172 344.63 344.488C344.416 344.804 344.132 345.066 343.8 345.255C343.469 345.444 343.099 345.555 342.718 345.578H285.645C280.713 345.578 280.713 310.202 285.645 310.202H342.718C343.093 310.228 343.457 310.338 343.783 310.524C344.109 310.71 344.389 310.967 344.602 311.276C344.816 311.585 344.956 311.938 345.014 312.309C345.072 312.68 345.046 313.059 344.937 313.418C343.04 320.226 343.04 335.587 344.937 342.309Z" fill="#00A968"/>
<path opacity="0.5" d="M321.782 312.851C321.894 312.574 321.939 312.274 321.914 311.977C321.889 311.679 321.795 311.392 321.639 311.137C321.482 310.883 321.268 310.669 321.014 310.512C320.76 310.355 320.472 310.26 320.174 310.235H298.413C293.482 310.235 293.482 345.611 298.413 345.611H320.174C320.472 345.584 320.76 345.488 321.014 345.33C321.268 345.172 321.482 344.957 321.638 344.702C321.795 344.447 321.889 344.159 321.914 343.86C321.939 343.562 321.894 343.262 321.782 342.985C319.585 336.413 319.585 319.401 321.782 312.851Z" fill="white"/>
<path d="M434.342 383.495C434.469 383.965 434.482 384.459 434.38 384.935C434.278 385.412 434.065 385.857 433.757 386.234C433.449 386.611 433.055 386.909 432.609 387.104C432.163 387.299 431.676 387.385 431.19 387.355H267.239C260.238 387.355 260.228 345.547 267.239 345.547H431.255C431.741 345.516 432.227 345.602 432.673 345.797C433.119 345.992 433.513 346.29 433.821 346.667C434.129 347.044 434.343 347.489 434.445 347.966C434.546 348.442 434.533 348.936 434.406 349.406C431.608 357.371 431.619 375.541 434.342 383.495Z" fill="#00A968"/>
<path opacity="0.2" d="M434.342 383.495C434.469 383.965 434.482 384.459 434.38 384.935C434.278 385.412 434.065 385.857 433.757 386.234C433.449 386.611 433.055 386.909 432.609 387.104C432.163 387.299 431.676 387.385 431.19 387.355H267.239C260.238 387.355 260.228 345.547 267.239 345.547H431.255C431.741 345.516 432.227 345.602 432.673 345.797C433.119 345.992 433.513 346.29 433.821 346.667C434.129 347.044 434.343 347.489 434.445 347.966C434.546 348.442 434.533 348.936 434.406 349.406C431.608 357.371 431.619 375.541 434.342 383.495Z" fill="white"/>
<path opacity="0.8" d="M434.02 350.435H334.893C329.533 350.435 329.533 382.466 334.893 382.466H434.031C431.737 374.437 431.737 358.475 434.02 350.435Z" fill="white"/>
<path opacity="0.6" d="M328.117 383.517C328.246 383.986 328.262 384.48 328.161 384.956C328.061 385.432 327.848 385.878 327.541 386.256C327.234 386.633 326.841 386.932 326.395 387.127C325.949 387.322 325.462 387.407 324.976 387.376H267.239C260.238 387.376 260.228 345.568 267.239 345.568H324.976C325.462 345.538 325.949 345.623 326.395 345.818C326.841 346.013 327.235 346.311 327.543 346.689C327.851 347.066 328.065 347.511 328.166 347.987C328.268 348.463 328.255 348.957 328.128 349.427C325.395 357.392 325.395 375.552 328.117 383.517Z" fill="#00A968"/>
<path opacity="0.5" d="M293.535 347.026C293.625 346.873 293.67 346.698 293.667 346.521C293.663 346.344 293.611 346.171 293.516 346.021C293.421 345.872 293.286 345.751 293.127 345.673C292.968 345.595 292.79 345.562 292.613 345.579H282.805C275.815 345.579 275.815 387.387 282.805 387.387H292.656C292.833 387.403 293.01 387.37 293.17 387.292C293.329 387.214 293.463 387.094 293.559 386.944C293.654 386.795 293.706 386.622 293.71 386.445C293.713 386.268 293.668 386.093 293.578 385.94C289.322 379.475 289.322 353.479 293.535 347.026Z" fill="white"/>
<path opacity="0.5" d="M308.843 347.026C308.931 346.872 308.976 346.697 308.972 346.52C308.968 346.342 308.916 346.169 308.821 346.019C308.726 345.869 308.592 345.748 308.434 345.669C308.275 345.589 308.098 345.554 307.921 345.568H298.112C291.123 345.568 291.123 387.376 298.112 387.376H307.921C308.097 387.39 308.273 387.356 308.43 387.277C308.588 387.198 308.721 387.078 308.815 386.928C308.909 386.779 308.96 386.607 308.963 386.431C308.966 386.255 308.921 386.081 308.832 385.929C304.63 379.475 304.63 353.469 308.843 347.026Z" fill="white"/>
<path d="M432.734 287.991C432.544 285.013 431.844 282.091 430.665 279.35L431.63 278.879C432.855 281.735 433.58 284.781 433.774 287.883L432.734 287.991Z" fill="#00A968"/>
<path d="M426.013 274.709H399.384V275.781H426.013V274.709Z" fill="#00A968"/>
<path d="M252.467 307.308C251.92 308.766 253.26 310.235 255.072 310.235H426.013C431.791 310.235 431.791 278.461 426.013 278.461H255.072C253.26 278.461 251.92 279.94 252.467 281.398C254.718 287.434 254.718 301.252 252.467 307.308Z" fill="#00A968"/>
<path opacity="0.2" d="M252.467 307.308C251.92 308.766 253.26 310.235 255.072 310.235H353.696C359.485 310.235 359.485 278.461 353.696 278.461H255.072C253.26 278.461 251.92 279.94 252.467 281.398C254.718 287.434 254.718 301.252 252.467 307.308Z" fill="black"/>
<path opacity="0.8" d="M252.724 282.181H350.834C355.272 282.181 355.272 306.526 350.834 306.526H252.724C254.622 300.415 254.622 288.291 252.724 282.181Z" fill="white"/>
<path opacity="0.2" d="M373.796 285.547C373.367 284.142 374.611 282.781 376.326 282.781H416.054C420.267 282.781 420.267 305.925 416.054 305.925H376.326C374.611 305.925 373.367 304.564 373.796 303.149C375.2 298.7 375.2 290.006 373.796 285.547Z" fill="white"/>
<path d="M236.483 46.2337C231.648 51.4115 219.845 46.2337 218.044 60.4913C216.093 75.8638 223.49 83.2499 213.939 87.2913C198.931 93.5625 188.211 118.626 209.05 128.027C229.89 137.429 274.271 127.577 269.275 108.42C264.28 89.2638 265.266 78.9833 271.162 69.9571C278.934 58.0257 277.272 42.6961 270.937 37.1431C261.074 28.4599 247.449 34.4417 236.483 46.2337Z" fill="#263238"/>
<path d="M262.276 107.906C262.194 107.909 262.114 107.881 262.052 107.827C261.99 107.773 261.951 107.698 261.943 107.616C261.936 107.573 261.937 107.529 261.947 107.486C261.957 107.444 261.976 107.404 262.002 107.369C262.028 107.334 262.061 107.304 262.099 107.282C262.137 107.26 262.179 107.246 262.222 107.241C266.36 106.673 268.826 105.655 269.983 104.025C271.42 101.999 270.798 98.9867 269.983 95.1704C268.718 88.9635 266.971 80.4625 272.545 69.7211C279.31 56.6963 276.833 42.4173 270.498 37.7433C270.427 37.6918 270.38 37.6145 270.366 37.5283C270.352 37.442 270.372 37.3536 270.423 37.2824C270.476 37.211 270.555 37.1633 270.644 37.1493C270.732 37.1353 270.822 37.1561 270.895 37.2073C277.498 42.0421 280.049 56.707 273.135 70.032C267.679 80.559 269.394 88.9313 270.637 95.0417C271.452 99.0081 272.095 102.149 270.487 104.411C269.222 106.201 266.617 107.305 262.286 107.906H262.276Z" fill="#263238"/>
<path d="M208.226 89.3388C207.549 89.3359 206.872 89.293 206.2 89.2101C206.156 89.2048 206.114 89.1909 206.075 89.1691C206.037 89.1473 206.003 89.1181 205.976 89.0832C205.949 89.0482 205.93 89.0083 205.918 88.9657C205.907 88.9231 205.904 88.8786 205.91 88.8349C205.916 88.7911 205.93 88.7488 205.951 88.7105C205.973 88.6721 206.002 88.6385 206.037 88.6116C206.072 88.5846 206.112 88.5649 206.155 88.5536C206.197 88.5422 206.242 88.5395 206.286 88.5455C209.33 88.9207 211.538 88.4704 213.028 87.1626C215.816 84.7077 215.858 79.5728 215.891 73.6232C215.891 66.8911 215.987 59.2692 220.35 54.07C220.378 54.0362 220.413 54.0083 220.452 53.9878C220.491 53.9674 220.533 53.9548 220.577 53.9508C220.621 53.9469 220.665 53.9515 220.707 53.9646C220.749 53.9777 220.788 53.9989 220.822 54.0271C220.856 54.0552 220.884 54.0898 220.904 54.1287C220.924 54.1677 220.937 54.2102 220.941 54.254C220.945 54.2978 220.94 54.342 220.927 54.384C220.914 54.426 220.893 54.465 220.865 54.4988C216.652 59.5157 216.577 67.009 216.577 73.634C216.577 79.7336 216.502 85.0079 213.489 87.6664C212.004 88.8595 210.127 89.4558 208.226 89.3388Z" fill="#263238"/>
<path d="M313.443 278.439C306.292 278.354 303.484 277.903 300.193 277.957C296.902 278.011 296.119 278.59 292.689 278.439C290.373 278.343 290.363 275.588 291.252 273.701C291.949 272.222 292.807 270.732 293.6 268.888L302.669 269.553C303.891 273.004 309.959 274.484 315.276 275.706C317.388 276.21 316.305 278.472 313.443 278.439Z" fill="#00A968"/>
<path d="M266.155 146.744C266.155 146.744 290.147 167.38 314.395 189.27C324.644 198.543 303.15 269.242 303.15 269.242C302.7 270.753 294.703 268.598 293.502 267.409C293.502 267.409 292.28 212.533 297.479 201.48C243.708 187.888 235.303 161.484 235.303 161.484L239.162 145.104L266.155 146.744Z" fill="#263238"/>
<path opacity="0.2" d="M238.852 167.991C241.861 172.198 245.428 175.977 249.454 179.226C254.814 172.955 253.313 162.824 253.313 162.824L238.852 167.991Z" fill="black"/>
<path d="M305.016 266.186C304.866 267.258 304.609 269.156 304.469 270.56C304.448 270.788 304.34 270.998 304.169 271.15C303.998 271.301 303.776 271.381 303.547 271.375C299.96 271.094 296.407 270.476 292.935 269.531C292.767 269.485 292.62 269.386 292.513 269.249C292.407 269.111 292.348 268.943 292.345 268.77L292.27 264.857C292.269 264.73 292.296 264.604 292.347 264.487C292.398 264.371 292.473 264.266 292.566 264.181C292.66 264.095 292.771 264.029 292.892 263.989C293.013 263.949 293.14 263.934 293.267 263.946L304.33 265.286C304.435 265.298 304.537 265.331 304.629 265.383C304.721 265.435 304.802 265.505 304.866 265.589C304.93 265.674 304.976 265.77 305.002 265.873C305.028 265.975 305.033 266.082 305.016 266.186Z" fill="#263238"/>
<path opacity="0.3" d="M305.016 266.186C304.866 267.258 304.609 269.156 304.469 270.56C304.448 270.788 304.34 270.998 304.169 271.15C303.998 271.301 303.776 271.381 303.547 271.375C299.96 271.094 296.407 270.476 292.935 269.531C292.767 269.485 292.62 269.386 292.513 269.249C292.407 269.111 292.348 268.943 292.345 268.77L292.27 264.857C292.269 264.73 292.296 264.604 292.347 264.487C292.398 264.371 292.473 264.266 292.566 264.181C292.66 264.095 292.771 264.029 292.892 263.989C293.013 263.949 293.14 263.934 293.267 263.946L304.33 265.286C304.435 265.298 304.537 265.331 304.629 265.383C304.721 265.435 304.802 265.505 304.866 265.589C304.93 265.674 304.976 265.77 305.002 265.873C305.028 265.975 305.033 266.082 305.016 266.186Z" fill="white"/>
<path d="M208.472 329.713C201.204 329.713 198.824 326.98 194.761 326.229C191.33 325.586 190.419 325.886 187.654 325.404C185.338 324.996 185.156 323.41 186.582 321.062C187.512 319.439 188.301 317.739 188.94 315.981L199.96 316.71C201.107 319.658 203.755 325.65 207.796 326.358C211.602 327.098 211.366 329.713 208.472 329.713Z" fill="#00A968"/>
<path d="M264.494 146.68C264.494 146.68 239.141 191.758 228.936 219.641C218.216 248.928 201.15 296.824 199.917 316.71C198.095 317.578 192.113 317.246 188.897 315.981C188.897 315.981 185.917 247.373 206.553 219.887C211.473 161.024 219.642 151.611 228.325 144.44L264.494 146.68Z" fill="#263238"/>
<path d="M201.246 312.647C201.115 314.004 201.079 315.369 201.139 316.731C201.154 316.968 201.074 317.202 200.918 317.38C200.761 317.559 200.54 317.669 200.303 317.685C196.197 318.06 190.473 316.742 188.661 316.292C188.493 316.249 188.343 316.153 188.234 316.018C188.126 315.882 188.065 315.715 188.061 315.541L187.921 311.704C187.92 311.577 187.944 311.452 187.993 311.336C188.042 311.22 188.115 311.115 188.207 311.028C188.298 310.942 188.407 310.875 188.526 310.832C188.645 310.79 188.771 310.773 188.897 310.782L200.517 311.779C200.623 311.787 200.725 311.816 200.819 311.864C200.913 311.912 200.997 311.979 201.065 312.059C201.132 312.14 201.183 312.234 201.215 312.335C201.246 312.436 201.257 312.542 201.246 312.647Z" fill="#263238"/>
<path opacity="0.3" d="M201.246 312.647C201.115 314.004 201.079 315.369 201.139 316.731C201.154 316.968 201.074 317.202 200.918 317.38C200.761 317.559 200.54 317.669 200.303 317.685C196.197 318.06 190.473 316.742 188.661 316.292C188.493 316.249 188.343 316.153 188.234 316.018C188.126 315.882 188.065 315.715 188.061 315.541L187.921 311.704C187.92 311.577 187.944 311.452 187.993 311.336C188.042 311.22 188.115 311.115 188.207 311.028C188.298 310.942 188.407 310.875 188.526 310.832C188.645 310.79 188.771 310.773 188.897 310.782L200.517 311.779C200.623 311.787 200.725 311.816 200.819 311.864C200.913 311.912 200.997 311.979 201.065 312.059C201.132 312.14 201.183 312.234 201.215 312.335C201.246 312.436 201.257 312.542 201.246 312.647Z" fill="white"/>
<path d="M271.215 102.46C272.287 104.486 273.445 106.748 274.624 108.892C275.803 111.036 276.993 113.18 278.194 115.27C280.617 119.483 283.147 123.61 285.859 127.502L284.401 126.205C285.477 126.961 286.663 127.547 287.917 127.941C289.435 128.45 290.99 128.837 292.569 129.099C294.22 129.399 295.936 129.603 297.683 129.764C299.43 129.924 301.263 130.021 302.936 130.128H303.161C303.857 130.168 304.518 130.449 305.029 130.923C305.541 131.398 305.871 132.035 305.964 132.726C306.056 133.418 305.905 134.119 305.537 134.711C305.168 135.303 304.605 135.749 303.943 135.97C302.028 136.608 300.068 137.102 298.08 137.45C296.081 137.805 294.061 138.024 292.033 138.104C289.882 138.186 287.728 138.057 285.601 137.718C283.202 137.356 280.882 136.588 278.741 135.445C278.296 135.202 277.899 134.879 277.572 134.491L277.283 134.148C275.578 132.111 273.917 130.032 272.394 127.898C270.872 125.765 269.382 123.61 267.999 121.466C266.616 119.322 265.276 117.039 264.011 114.777C262.746 112.515 261.546 110.275 260.399 107.798C259.797 106.391 259.755 104.807 260.281 103.37C260.808 101.933 261.864 100.751 263.233 100.067C264.602 99.3824 266.181 99.2467 267.647 99.6874C269.112 100.128 270.354 101.112 271.119 102.438L271.215 102.46Z" fill="#FFB573"/>
<path d="M265.298 93.8088C272.298 96.1136 273.434 99.2546 277.272 110.854C274.721 117.811 264.408 121.338 264.408 121.338C264.408 121.338 252.23 101.506 265.298 93.8088Z" fill="#00A968"/>
<path d="M274.882 108.903C274.486 112.741 273.5 117.318 271.431 126.312C269.823 133.945 269.801 148.824 267.228 149.607C262.286 152.051 249.916 151.108 228.325 144.44C229.012 133.291 230.309 125.723 226.6 100.145C226.366 98.8039 226.435 97.4278 226.8 96.1167C227.165 94.8056 227.819 93.5925 228.712 92.5656C229.605 91.5388 230.716 90.724 231.964 90.1807C233.212 89.6374 234.566 89.3792 235.926 89.4248C237.491 89.4248 239.142 89.5535 240.825 89.7036C246.763 90.0607 252.667 90.8453 258.492 92.0512C260.389 92.48 262.351 92.9839 264.216 93.4984C267.501 94.4367 270.359 96.4845 272.304 99.2933C274.249 102.102 275.16 105.498 274.882 108.903Z" fill="#00A968"/>
<path d="M199.306 153.24L201.45 151.279C201.849 150.914 202.154 150.459 202.341 149.951C202.528 149.444 202.59 148.899 202.522 148.363L201.932 143.249C201.819 142.244 201.469 141.281 200.91 140.438C200.35 139.596 199.598 138.898 198.716 138.404L197.644 137.793C193.817 140.805 191.898 146.873 191.898 146.873L191.159 148.545C190.996 148.883 190.902 149.25 190.883 149.625C190.863 150 190.918 150.374 191.045 150.727C191.172 151.081 191.367 151.405 191.621 151.682C191.874 151.959 192.18 152.182 192.52 152.34L195.811 153.841C196.39 154.087 197.027 154.162 197.647 154.056C198.267 153.949 198.843 153.666 199.306 153.24Z" fill="#FFB573"/>
<path d="M311.834 127.491L309.089 126.419C308.581 126.228 308.035 126.16 307.496 126.224C306.957 126.287 306.441 126.479 305.991 126.784L301.703 129.657C300.862 130.223 300.168 130.983 299.681 131.873C299.194 132.763 298.928 133.756 298.905 134.77V136.046C303.333 138.061 309.625 136.968 309.625 136.968L311.448 136.861C311.823 136.848 312.192 136.762 312.533 136.606C312.874 136.45 313.181 136.228 313.437 135.953C313.692 135.678 313.89 135.355 314.019 135.003C314.149 134.651 314.208 134.277 314.192 133.902L314.02 130.289C313.971 129.66 313.737 129.059 313.348 128.561C312.959 128.064 312.433 127.692 311.834 127.491Z" fill="#FFB573"/>
<path d="M232.989 103.597L231.617 104.229L230.116 104.915C229.119 105.398 228.133 105.901 227.147 106.416C225.164 107.488 223.234 108.56 221.336 109.686C219.439 110.811 217.606 112.065 215.826 113.341C214.047 114.617 212.396 116.01 210.788 117.436L211.496 116.536C210.973 117.304 210.514 118.115 210.123 118.958C209.652 119.934 209.212 120.995 208.783 122.078C207.926 124.222 207.09 126.516 206.318 128.821C205.546 131.126 204.763 133.463 204.002 135.8L201.687 142.843C201.462 143.534 200.994 144.121 200.37 144.494C199.745 144.866 199.006 145 198.291 144.869C197.576 144.738 196.932 144.351 196.48 143.781C196.028 143.212 195.798 142.497 195.834 141.771C195.952 139.187 196.187 136.679 196.477 134.149C196.766 131.619 197.131 129.1 197.549 126.57C197.967 124.04 198.514 121.499 199.21 118.926C199.553 117.64 199.929 116.353 200.4 115.003C200.899 113.516 201.538 112.08 202.309 110.715C202.444 110.491 202.598 110.279 202.769 110.082L203.027 109.814C204.793 107.867 206.683 106.037 208.687 104.336C210.661 102.658 212.73 101.094 214.883 99.6517C217.007 98.2116 219.208 96.8875 221.476 95.6853C222.612 95.0849 223.759 94.5168 224.928 93.9593C225.517 93.6913 226.096 93.4126 226.707 93.1553C227.318 92.8981 227.876 92.6729 228.637 92.3835C230.097 91.7999 231.727 91.8134 233.177 92.421C234.627 93.0287 235.781 94.1819 236.388 95.632C236.996 97.082 237.009 98.7128 236.425 100.173C235.842 101.632 234.708 102.804 233.268 103.436L232.989 103.597Z" fill="#FFB573"/>
<path d="M243.344 92.212C238.091 88.4492 234.897 88.0419 222.183 93.5627C220.671 101.56 225.624 113.298 225.624 113.298C225.624 113.298 242.54 104.486 243.344 92.212Z" fill="#00A968"/>
<path d="M244.716 69.9355C245.499 75.8208 246.003 86.4872 241.8 89.789C241.8 89.789 247.289 89.6925 257.784 98.2792C261.718 93.9912 259.467 92.1367 259.467 92.1367C253.217 89.7676 253.657 85.04 255.018 80.7199L244.716 69.9355Z" fill="#FFB573"/>
<path d="M255.565 96.5428C251.738 96.5428 249.798 102.106 249.798 102.106C249.798 102.106 240.6 94.774 239.346 89.6177C240.567 89.1252 241.762 88.5706 242.926 87.9561C242.926 87.9561 253.657 94.0772 255.565 96.5428Z" fill="white"/>
<path d="M259.231 96.4033C259.231 96.4033 262.125 97.4753 263.08 101.763C265.041 93.5946 261.214 92.3082 261.214 92.3082C260.255 91.5892 259.063 91.2529 257.87 91.3649C258.652 91.9111 259.217 92.7153 259.466 93.6365C259.715 94.5578 259.632 95.5373 259.231 96.4033Z" fill="white"/>
<path opacity="0.2" d="M248.918 74.3308L255.007 80.7628C254.676 81.7683 254.435 82.8016 254.289 83.8502C251.888 83.1748 248.715 80.0553 248.607 77.4182C248.52 76.3787 248.625 75.332 248.918 74.3308Z" fill="black"/>
<path d="M238.113 61.3706C240.257 70.5254 241.039 74.4382 246.539 78.619C254.804 84.901 265.535 80.8274 266.113 71.3509C266.628 62.7749 262.962 49.2677 253.249 46.6949C251.191 46.0762 249.005 46.0182 246.917 46.5268C244.829 47.0355 242.915 48.0924 241.372 49.5883C239.829 51.0843 238.714 52.965 238.141 55.0363C237.568 57.1076 237.558 59.2943 238.113 61.3706Z" fill="#FFB573"/>
<path d="M239.902 67.9525C243.268 66.3016 246.838 58.1865 242.046 54.3488C246.002 55.0885 250.536 54.0272 254.728 50.7897C260.195 46.5017 268.246 57.1467 265.598 50.8969C261.782 41.8921 250.279 39.6409 239.87 47.1235C229.461 54.6061 230.201 63.7073 239.902 67.9525Z" fill="#263238"/>
<path d="M237.051 66.1195C237.014 66.1158 236.98 66.1005 236.953 66.0759C236.926 66.0512 236.907 66.0184 236.9 65.9825C236.893 65.9465 236.897 65.9091 236.913 65.8759C236.928 65.8427 236.954 65.8153 236.987 65.7979C239.667 64.6401 251.04 62.2174 251.523 62.1209C251.545 62.1145 251.568 62.1129 251.59 62.1161C251.613 62.1193 251.634 62.1272 251.654 62.1394C251.673 62.1515 251.689 62.1676 251.702 62.1866C251.715 62.2056 251.723 62.2271 251.727 62.2496C251.733 62.292 251.724 62.3353 251.7 62.3711C251.676 62.4068 251.64 62.4323 251.598 62.4425C251.48 62.4425 239.806 64.9617 237.115 66.1088L237.051 66.1195Z" fill="white"/>
<path opacity="0.2" d="M250.848 62.314C249.699 61.8087 248.396 61.7778 247.225 62.2282C248.415 62.4918 249.646 62.5209 250.848 62.314Z" fill="black"/>
<path opacity="0.2" d="M250.751 63.1285C250.194 63.0108 249.617 63.016 249.062 63.1438C248.506 63.2715 247.985 63.5187 247.535 63.8682C248.647 63.8504 249.743 63.5984 250.751 63.1285Z" fill="black"/>
<path d="M252.841 62.1847C252.992 62.9672 253.517 63.5461 254.021 63.4818C254.525 63.4175 254.803 62.7421 254.653 61.9596C254.503 61.177 253.967 60.6088 253.474 60.6624C252.981 60.716 252.691 61.4128 252.841 62.1847Z" fill="#263238"/>
<path d="M262.254 61.1667C262.405 61.9385 262.941 62.5174 263.434 62.4638C263.927 62.4102 264.216 61.7134 264.066 60.9416C263.916 60.1697 263.391 59.5801 262.887 59.6445C262.383 59.7088 262.104 60.3841 262.254 61.1667Z" fill="#263238"/>
<path d="M262.64 59.7194L264.377 58.9475C264.377 58.9475 263.712 60.5234 262.64 59.7194Z" fill="#263238"/>
<path d="M260.496 62.6567C261.424 64.4056 262.569 66.0301 263.905 67.4915C263.54 67.7983 263.111 68.0201 262.649 68.1406C262.187 68.2611 261.705 68.2774 261.236 68.1883L260.496 62.6567Z" fill="#ED893E"/>
<path d="M257.119 71.6508C257.55 71.6876 257.984 71.6876 258.416 71.6508C258.445 71.647 258.473 71.6372 258.499 71.6219C258.524 71.6066 258.546 71.5863 258.563 71.5621C258.58 71.5379 258.592 71.5105 258.598 71.4814C258.604 71.4524 258.604 71.4225 258.598 71.3935C258.587 71.3319 258.554 71.2766 258.504 71.2388C258.454 71.201 258.392 71.1835 258.33 71.1898C257.36 71.3074 256.375 71.2078 255.448 70.8981C254.521 70.5885 253.675 70.0766 252.97 69.3996C252.949 69.3782 252.924 69.3612 252.896 69.3496C252.869 69.338 252.839 69.332 252.809 69.332C252.779 69.332 252.749 69.338 252.722 69.3496C252.694 69.3612 252.669 69.3782 252.648 69.3996C252.608 69.4433 252.585 69.5007 252.585 69.5604C252.585 69.6201 252.608 69.6775 252.648 69.7212C253.854 70.8868 255.443 71.5728 257.119 71.6508Z" fill="#263238"/>
<path d="M235.937 69.5714C236.453 70.3084 237.117 70.9302 237.887 71.397C238.656 71.8639 239.514 72.1658 240.407 72.2835C242.637 72.4658 243.119 69.8715 241.983 67.5667C240.964 65.4978 238.574 62.8928 236.623 63.7933C234.672 64.6938 234.489 67.6739 235.937 69.5714Z" fill="#FFB573"/>
<path d="M249.83 56.278C249.889 56.278 249.948 56.2645 250.002 56.2385C250.056 56.2125 250.103 56.1747 250.141 56.1279C250.485 55.6863 250.934 55.3368 251.446 55.1105C251.959 54.8842 252.519 54.7881 253.078 54.8308C253.136 54.8398 253.195 54.8368 253.252 54.822C253.309 54.8072 253.362 54.7809 253.408 54.7448C253.454 54.7086 253.493 54.6633 253.521 54.6117C253.549 54.5601 253.566 54.5033 253.571 54.4449C253.576 54.3217 253.536 54.201 253.459 54.1046C253.383 54.0082 253.274 53.9426 253.153 53.9196C252.447 53.8571 251.738 53.9702 251.087 54.249C250.436 54.5277 249.864 54.9633 249.422 55.5169C249.37 55.59 249.34 55.6761 249.334 55.7656C249.329 55.8551 249.348 55.9444 249.391 56.0234C249.433 56.1024 249.496 56.1681 249.574 56.2131C249.651 56.2581 249.74 56.2805 249.83 56.278Z" fill="#263238"/>
<path d="M263.99 55.8817C264.048 55.8881 264.106 55.8828 264.161 55.8662C264.216 55.8496 264.268 55.8221 264.312 55.7852C264.355 55.7433 264.389 55.6932 264.412 55.638C264.435 55.5828 264.447 55.5235 264.447 55.4636C264.447 55.4037 264.435 55.3444 264.412 55.2892C264.389 55.234 264.355 55.1839 264.312 55.142C263.849 54.5603 263.258 54.0932 262.585 53.7771C261.912 53.4611 261.175 53.3045 260.431 53.3196C260.372 53.3244 260.314 53.3418 260.262 53.3706C260.21 53.3994 260.165 53.4389 260.13 53.4866C260.094 53.5343 260.069 53.589 260.057 53.6471C260.044 53.7052 260.044 53.7653 260.056 53.8234C260.075 53.9446 260.137 54.0546 260.233 54.1319C260.328 54.2092 260.448 54.2483 260.571 54.2415C261.16 54.2352 261.743 54.3643 262.275 54.619C262.806 54.8736 263.272 55.2469 263.637 55.7102C263.679 55.7631 263.733 55.8059 263.794 55.8355C263.855 55.8652 263.922 55.8809 263.99 55.8817Z" fill="#263238"/>
<path d="M255.747 67.0407C253.485 67.0407 251.523 64.6394 251.309 61.5628C251.179 60.1137 251.513 58.6609 252.263 57.4141C252.559 56.8857 252.977 56.4357 253.482 56.1019C253.988 55.768 254.566 55.5601 255.168 55.4953C257.537 55.3345 259.617 57.7893 259.842 60.9732C260.067 64.157 258.32 66.8692 255.972 67.03L255.747 67.0407ZM255.393 55.8812H255.2C254.648 55.9444 254.12 56.1378 253.658 56.4453C253.195 56.7528 252.813 57.1657 252.541 57.65C251.83 58.8359 251.514 60.2177 251.641 61.5949C251.845 64.5858 253.785 66.8906 255.929 66.7513C258.073 66.6119 259.692 64.0391 259.488 61.0482C259.284 58.0573 257.483 55.8812 255.393 55.8812Z" fill="white"/>
<path d="M265.77 66.4626C263.508 66.4626 261.536 64.072 261.321 60.9954C261.197 59.5467 261.531 58.0954 262.276 56.8468C262.574 56.3181 262.994 55.8681 263.501 55.5344C264.008 55.2007 264.588 54.9927 265.191 54.9279C267.539 54.7671 269.64 57.222 269.855 60.3951C269.979 61.8438 269.646 63.295 268.9 64.5437C268.604 65.0736 268.184 65.5244 267.676 65.8583C267.169 66.1922 266.589 66.3995 265.985 66.4626H265.77ZM265.416 55.2602H265.213C264.661 55.3234 264.133 55.5168 263.67 55.8243C263.208 56.1318 262.826 56.5447 262.554 57.029C261.852 58.2187 261.537 59.5974 261.654 60.974C261.857 63.8684 263.68 66.1303 265.77 66.1303H265.963C266.516 66.0696 267.045 65.8773 267.508 65.5695C267.97 65.2617 268.352 64.8475 268.622 64.3615C269.328 63.1773 269.643 61.8007 269.522 60.4272C269.319 57.5221 267.496 55.2602 265.416 55.2602Z" fill="white"/>
<path d="M261.568 61.435C261.539 61.4334 261.512 61.4248 261.487 61.4098C261.463 61.3948 261.443 61.374 261.428 61.3492C261.021 60.706 259.831 61.4028 259.82 61.4028C259.802 61.4144 259.782 61.4223 259.761 61.4259C259.739 61.4295 259.718 61.4288 259.696 61.4238C259.675 61.4188 259.656 61.4096 259.638 61.3968C259.621 61.384 259.606 61.3678 259.595 61.3492C259.568 61.318 259.553 61.278 259.553 61.2366C259.553 61.1953 259.568 61.1553 259.595 61.1241C259.66 61.1241 261.075 60.245 261.654 61.1241C261.667 61.1417 261.676 61.1621 261.681 61.1837C261.685 61.2054 261.685 61.2278 261.68 61.2493C261.675 61.2708 261.665 61.2909 261.651 61.3082C261.637 61.3254 261.62 61.3395 261.6 61.3492C261.601 61.3649 261.598 61.3806 261.593 61.3953C261.587 61.4101 261.579 61.4235 261.568 61.435Z" fill="white"/>
<path d="M253.259 60.7377L254.985 59.9766C254.985 59.9766 254.331 61.5524 253.259 60.7377Z" fill="#263238"/>
</svg>
