<svg width="348" height="218" viewBox="0 0 348 218" fill="none" xmlns="http://www.w3.org/2000/svg">
<rect y="3.05176e-05" width="348" height="218" fill="#3F1247"/>
<path d="M200.719 77C203.071 76.9997 205.335 77.8922 207.054 79.4971C208.773 81.1021 209.818 83.2997 209.979 85.646L210 86.2812V150.21C210 152.562 209.108 154.826 207.503 156.545C205.898 158.265 203.7 159.31 201.354 159.471L200.719 159.492H153.281C150.929 159.492 148.665 158.6 146.946 156.995C145.227 155.39 144.182 153.192 144.021 150.846L144 150.21V86.2812C144 83.9295 144.892 81.6653 146.497 79.9463C148.102 78.2272 150.3 77.1816 152.646 77.0206L153.281 77H200.719ZM159.469 97.5961C158.648 97.5961 157.861 97.9221 157.281 98.5023C156.701 99.0825 156.375 99.8694 156.375 100.69C156.375 101.51 156.701 102.297 157.281 102.877C157.861 103.458 158.648 103.784 159.469 103.784H194.531C195.352 103.784 196.139 103.458 196.719 102.877C197.299 102.297 197.625 101.51 197.625 100.69C197.625 99.8694 197.299 99.0825 196.719 98.5023C196.139 97.9221 195.352 97.5961 194.531 97.5961H159.469ZM156.375 117.19C156.375 118.898 157.761 120.284 159.469 120.284H194.531C195.352 120.284 196.139 119.958 196.719 119.377C197.299 118.797 197.625 118.01 197.625 117.19C197.625 116.369 197.299 115.582 196.719 115.002C196.139 114.422 195.352 114.096 194.531 114.096H159.469C158.648 114.096 157.861 114.422 157.281 115.002C156.701 115.582 156.375 116.369 156.375 117.19ZM159.469 130.596C158.648 130.596 157.861 130.922 157.281 131.502C156.701 132.082 156.375 132.869 156.375 133.69C156.375 134.51 156.701 135.297 157.281 135.877C157.861 136.458 158.648 136.784 159.469 136.784H194.531C195.352 136.784 196.139 136.458 196.719 135.877C197.299 135.297 197.625 134.51 197.625 133.69C197.625 132.869 197.299 132.082 196.719 131.502C196.139 130.922 195.352 130.596 194.531 130.596H159.469Z" fill="#BA68C8"/>
</svg>
