<svg width="94" height="88" viewBox="0 0 94 88" fill="none" xmlns="http://www.w3.org/2000/svg">
<path d="M9.40386 87.8641H6.27071C4.60878 87.8641 3.01492 87.2039 1.83976 86.0287C0.664594 84.8536 0.00439453 83.2597 0.00439453 81.5978V15.8015C0.00439453 14.1395 0.664594 12.5457 1.83976 11.3705C3.01492 10.1954 4.60878 9.53516 6.27071 9.53516H9.40386C11.0658 9.53516 12.6597 10.1954 13.8348 11.3705C15.01 12.5457 15.6702 14.1395 15.6702 15.8015V81.5978C15.6702 83.2597 15.01 84.8536 13.8348 86.0287C12.6597 87.2039 11.0658 87.8641 9.40386 87.8641Z" fill="#BA68C8"/>
<path d="M43.8685 28.3342C43.8685 26.6723 43.2083 25.0784 42.0331 23.9032C40.858 22.7281 39.2641 22.0679 37.6022 22.0679H25.0695C23.4076 22.0679 21.8137 22.7281 20.6386 23.9032C19.4634 25.0784 18.8032 26.6723 18.8032 28.3342V33.8172C18.8032 34.025 18.8857 34.2242 19.0326 34.3711C19.1795 34.518 19.3788 34.6005 19.5865 34.6005H43.0852C43.2929 34.6005 43.4922 34.518 43.6391 34.3711C43.786 34.2242 43.8685 34.025 43.8685 33.8172V28.3342Z" fill="#BA68C8"/>
<path d="M18.8032 81.5979C18.8032 83.2598 19.4634 84.8536 20.6386 86.0288C21.8137 87.204 23.4076 87.8642 25.0695 87.8642H37.6022C39.2641 87.8642 40.858 87.204 42.0331 86.0288C43.2083 84.8536 43.8685 83.2598 43.8685 81.5979V75.7232C43.8685 75.6193 43.8272 75.5197 43.7538 75.4463C43.6803 75.3728 43.5807 75.3315 43.4768 75.3315H19.1949C19.091 75.3315 18.9914 75.3728 18.9179 75.4463C18.8445 75.5197 18.8032 75.6193 18.8032 75.7232V81.5979Z" fill="#BA68C8"/>
<path d="M43.4768 40.8667H19.1949C18.9786 40.8667 18.8032 41.042 18.8032 41.2583V68.6735C18.8032 68.8898 18.9786 69.0651 19.1949 69.0651H43.4768C43.6931 69.0651 43.8685 68.8898 43.8685 68.6735V41.2583C43.8685 41.042 43.6931 40.8667 43.4768 40.8667Z" fill="#BA68C8"/>
<path d="M59.5341 87.8641H53.2678C51.6058 87.8641 50.012 87.2039 48.8368 86.0288C47.6617 84.8536 47.0015 83.2597 47.0015 81.5978V6.40205C47.0015 4.74013 47.6617 3.14626 48.8368 1.9711C50.012 0.795941 51.6058 0.135742 53.2678 0.135742H59.5341C61.196 0.135742 62.7899 0.795941 63.965 1.9711C65.1402 3.14626 65.8004 4.74013 65.8004 6.40205V81.5978C65.8004 83.2597 65.1402 84.8536 63.965 86.0288C62.7899 87.2039 61.196 87.8641 59.5341 87.8641Z" fill="#BA68C8"/>
<path d="M93.9777 81.0983L87.6663 14.5187C87.3765 11.4541 84.3491 9.23149 80.9046 9.56243L74.6676 10.1499C71.2231 10.4769 68.6657 13.2263 68.9555 16.2909L75.2669 82.8705C75.5567 85.9351 78.5841 88.1577 82.0286 87.8267L88.2655 87.2393C91.71 86.9122 94.2675 84.1629 93.9777 81.0983V81.0983Z" fill="#BA68C8"/>
</svg>
