<svg width="238" height="238" viewBox="0 0 238 238" fill="none" xmlns="http://www.w3.org/2000/svg">
<path d="M119 0C53.3834 0 0 53.3834 0 119C0 184.617 53.3834 238 119 238C184.617 238 238 184.617 238 119C238 53.3834 184.617 0 119 0ZM23.8 119C23.8 108.302 25.6564 98.0322 28.9289 88.4289L47.6 107.1L71.4 130.9V154.7L95.2 178.5L107.1 190.4V213.379C60.2259 207.488 23.8 167.457 23.8 119ZM194.327 176.989C186.556 170.729 174.775 166.6 166.6 166.6V154.7C166.6 148.388 164.092 142.334 159.629 137.871C155.166 133.407 149.112 130.9 142.8 130.9H95.2V95.2C101.512 95.2 107.566 92.6925 112.029 88.2291C116.492 83.7658 119 77.7122 119 71.4V59.5H130.9C137.212 59.5 143.266 56.9925 147.729 52.5291C152.192 48.0658 154.7 42.0122 154.7 35.7V30.8091C189.543 44.9582 214.2 79.135 214.2 119C214.198 140 207.206 160.402 194.327 176.989V176.989Z" fill="#00FF9D"/>
</svg>
